STARTFONT 2.3
FONT -FontForge-Hanalei-Book-R-Normal--18-180-72-72-P-91-ISO10646-1
SIZE 18 72 72  4
FONTBOUNDINGBOX 23 24 -1 -5
COMMENT "Generated by fontforge, http://fontforge.sourceforge.net"
COMMENT "Copyright (c) 2012 by Brian J. Bonislawsky DBA Astigmatic (AOETI) (astigma@astigmatic.com), with ReservedFont Name "Hanalei""
STARTPROPERTIES 40
FOUNDRY "FontForge"
FAMILY_NAME "Hanalei"
WEIGHT_NAME "Book"
SLANT "R"
SETWIDTH_NAME "Normal"
ADD_STYLE_NAME ""
PIXEL_SIZE 18
POINT_SIZE 180
RESOLUTION_X 72
RESOLUTION_Y 72
SPACING "P"
AVERAGE_WIDTH 91
CHARSET_REGISTRY "ISO10646"
CHARSET_ENCODING "1"
FONTNAME_REGISTRY ""
CHARSET_COLLECTIONS "ISO8859-2 ISO8859-9 ISO8859-4 ISO10646-1"
BITS_PER_PIXEL 4
FONT_NAME "Hanalei-Regular"
FACE_NAME "Hanalei"
COPYRIGHT "Copyright (c) 2012 by Brian J. Bonislawsky DBA Astigmatic (AOETI) (astigma@astigmatic.com), with ReservedFont Name "Hanalei""
FONT_VERSION "1.000"
FONT_ASCENT 14
FONT_DESCENT 4
UNDERLINE_POSITION -2
UNDERLINE_THICKNESS 1
X_HEIGHT 12
CAP_HEIGHT 12
RAW_ASCENT 799
RAW_DESCENT 200
NORM_SPACE 4
RELATIVE_WEIGHT 40
RELATIVE_SETWIDTH 50
SUPERSCRIPT_X 0
SUPERSCRIPT_Y 8
SUPERSCRIPT_SIZE 11
SUBSCRIPT_X 0
SUBSCRIPT_Y 2
SUBSCRIPT_SIZE 11
AVG_LOWERCASE_WIDTH 97
AVG_UPPERCASE_WIDTH 95
ENDPROPERTIES
CHARS 366
STARTCHAR space
ENCODING 32
SWIDTH 200 0
DWIDTH 4 0
BBX 1 1 0 0
BITMAP
00
ENDCHAR
STARTCHAR exclam
ENCODING 33
SWIDTH 257 0
DWIDTH 5 0
BBX 5 14 0 -1
BITMAP
046200
440710
240700
160700
262700
474700
250600
150600
340700
066300
166300
340600
273600
023000
ENDCHAR
STARTCHAR quotedbl
ENCODING 34
SWIDTH 476 0
DWIDTH 9 0
BBX 8 9 0 5
BITMAP
01300130
46482748
34061606
34161616
66464857
42062406
52073407
55483748
02200130
ENDCHAR
STARTCHAR numbersign
ENCODING 35
SWIDTH 1076 0
DWIDTH 19 0
BBX 19 14 0 -1
BITMAP
05763005760263442410
0704B007044714385370
07064407061700077780
07070807070A77774060
2A66756A662605006060
16061076061606014060
070840670706067A7790
07068027061977060070
29668847662725465360
06071703560163331300
06070610780086666500
33061250681150000600
2768107A981076666500
00100000100000000000
ENDCHAR
STARTCHAR dollar
ENCODING 36
SWIDTH 453 0
DWIDTH 8 0
BBX 8 18 0 -3
BITMAP
00011000
00365600
00420600
00330981
005A8307
57406017
70005752
5669A000
67236820
03740065
00175007
02699787
65106147
70027831
17861500
01520500
00543600
00033000
ENDCHAR
STARTCHAR percent
ENCODING 37
SWIDTH 889 0
DWIDTH 16 0
BBX 16 13 0 0
BITMAP
0442300000000000
3842281175300000
5064554232400000
4050532515000000
5050532935000000
5655414516000000
4702663514865550
0254534144571075
0000006563254835
0000005062350505
0000005063475605
0000042064700606
00000055205557A1
ENDCHAR
STARTCHAR ampersand
ENCODING 38
SWIDTH 627 0
DWIDTH 11 0
BBX 12 15 0 -1
BITMAP
000100000000
003A86965300
018370622700
025055668900
006107901700
001556307000
001B10661000
007540660000
053080170440
450588677351
702B87034024
A47054308771
632057703400
557640776000
030000000000
ENDCHAR
STARTCHAR quotesingle
ENCODING 39
SWIDTH 246 0
DWIDTH 4 0
BBX 4 9 0 5
BITMAP
0130
4648
3406
3416
6646
4206
5207
5548
0220
ENDCHAR
STARTCHAR parenleft
ENCODING 40
SWIDTH 387 0
DWIDTH 7 0
BBX 8 15 -1 -1
BITMAP
00005730
00007072
00062071
00390430
00725700
02504400
18007000
26054000
0B778000
02702700
00447530
000B0080
00026018
00005207
00000984
ENDCHAR
STARTCHAR parenright
ENCODING 41
SWIDTH 386 0
DWIDTH 7 0
BBX 9 15 -1 -1
BITMAP
0037500000
0260700000
0160350000
0043093000
0007627000
0005306200
0000700800
0000540710
0000777A00
0007107100
0045654000
01800B0000
0810610000
1703400000
0588000000
ENDCHAR
STARTCHAR asterisk
ENCODING 42
SWIDTH 517 0
DWIDTH 9 0
BBX 9 9 0 4
BITMAP
0005660000
0005160000
4754363760
7128574070
1565027630
0057577000
0354472600
0457054600
0021003000
ENDCHAR
STARTCHAR plus
ENCODING 43
SWIDTH 458 0
DWIDTH 8 0
BBX 8 8 0 2
BITMAP
00067400
00330700
17687853
60107317
70005007
27786965
00420600
00277500
ENDCHAR
STARTCHAR comma
ENCODING 44
SWIDTH 228 0
DWIDTH 4 0
BBX 5 6 -1 -3
BITMAP
003400
006460
071070
520710
354300
034000
ENDCHAR
STARTCHAR hyphen
ENCODING 45
SWIDTH 465 0
DWIDTH 8 0
BBX 8 4 0 4
BITMAP
17668564
60006107
60004007
17666664
ENDCHAR
STARTCHAR period
ENCODING 46
SWIDTH 202 0
DWIDTH 4 0
BBX 4 4 0 -1
BITMAP
3661
6042
6371
0320
ENDCHAR
STARTCHAR slash
ENCODING 47
SWIDTH 453 0
DWIDTH 8 0
BBX 8 13 0 0
BITMAP
00000420
00005465
00007007
00034061
00097260
00160450
00610700
01A12500
05367100
07017000
53061000
71070000
16750000
ENDCHAR
STARTCHAR zero
ENCODING 48
SWIDTH 646 0
DWIDTH 12 0
BBX 13 14 -1 -1
BITMAP
00002884100000
00007009700000
00053053540000
002961A1054000
00702817547100
06305303801700
19786000440180
09017101881180
06400728819710
004562B2056000
00067720260000
00004701600000
00000578000000
00000001000000
ENDCHAR
STARTCHAR one
ENCODING 49
SWIDTH 400 0
DWIDTH 7 0
BBX 8 14 -1 -1
BITMAP
00007650
00178228
05607007
2501A016
08279646
00407006
00007025
00007016
00009647
00007016
00007024
00007016
00008356
00001420
ENDCHAR
STARTCHAR two
ENCODING 50
SWIDTH 502 0
DWIDTH 9 0
BBX 9 14 0 -1
BITMAP
0004220000
0034784000
0450176100
6303A10720
7026170070
2770086670
0001833370
0008634600
0181047000
1800460000
3904B66830
7276600070
4666666640
0200200200
ENDCHAR
STARTCHAR three
ENCODING 51
SWIDTH 456 0
DWIDTH 8 0
BBX 8 14 0 -1
BITMAP
05300000
44366820
610001B2
27686737
003A3272
02727710
08366700
07800550
00671299
00299509
57525006
70005774
54765000
03100000
ENDCHAR
STARTCHAR four
ENCODING 52
SWIDTH 514 0
DWIDTH 9 0
BBX 10 14 -1 -1
BITMAP
0000033630
0000448363
0000701661
0008107070
005666A662
0170276061
0710A6A685
2505107007
0677125447
0017559171
0000006060
0000034060
0000046381
0000002410
ENDCHAR
STARTCHAR five
ENCODING 53
SWIDTH 500 0
DWIDTH 9 0
BBX 9 13 0 0
BITMAP
0231424500
274A843520
2406420430
1509666700
3416000000
5867A66700
0700627840
0766682060
0000233060
0301233160
5465A76860
7000600640
4766766800
ENDCHAR
STARTCHAR six
ENCODING 54
SWIDTH 520 0
DWIDTH 9 0
BBX 11 14 -1 -1
BITMAP
000376000000
000701800000
000702600000
001606100000
006767000000
007008800000
007015283000
008045076400
037667651370
052072A58440
0600A5004800
170150167100
067855710000
000053000000
ENDCHAR
STARTCHAR seven
ENCODING 55
SWIDTH 423 0
DWIDTH 8 0
BBX 8 14 0 -1
BITMAP
23242250
74585535
60051009
77678686
00037070
00073570
00070260
00260610
00766700
00701700
02606100
07007000
03868000
00010000
ENDCHAR
STARTCHAR eight
ENCODING 56
SWIDTH 527 0
DWIDTH 10 0
BBX 10 14 0 -1
BITMAP
0321320320
2656586480
5300146780
6A7A886070
0700760160
0176360600
0091062500
0087009100
0421664600
1605A30710
710A790180
7142054063
189677A8D1
0041010010
ENDCHAR
STARTCHAR nine
ENCODING 57
SWIDTH 500 0
DWIDTH 9 0
BBX 10 14 0 -1
BITMAP
0000024000
0039756950
7644301662
7000587370
92688A1420
8616825700
1720702600
0075307000
000A637000
0016045000
0071070000
0250250000
0074720000
0002200000
ENDCHAR
STARTCHAR colon
ENCODING 58
SWIDTH 245 0
DWIDTH 4 0
BBX 4 11 0 -1
BITMAP
0240
2627
1506
0562
0000
0000
0000
1663
1506
1736
0230
ENDCHAR
STARTCHAR semicolon
ENCODING 59
SWIDTH 270 0
DWIDTH 5 0
BBX 6 13 -1 -3
BITMAP
001420
007281
006060
003650
000000
000000
000000
001510
006280
043061
250530
072600
015100
ENDCHAR
STARTCHAR less
ENCODING 60
SWIDTH 445 0
DWIDTH 8 0
BBX 8 11 0 1
BITMAP
00000100
00003880
00295025
05725164
62004700
63074000
76858200
65107661
01752016
00047253
00000640
ENDCHAR
STARTCHAR equal
ENCODING 61
SWIDTH 484 0
DWIDTH 9 0
BBX 9 9 0 2
BITMAP
0432412200
3544855800
5200600610
1866766800
0000000000
1866967700
5200600610
3412422700
0654644400
ENDCHAR
STARTCHAR greater
ENCODING 62
SWIDTH 445 0
DWIDTH 8 0
BBX 8 11 0 1
BITMAP
00100000
08830000
52059200
46152750
00740027
00058026
00285866
16770056
62025710
35275000
04600000
ENDCHAR
STARTCHAR question
ENCODING 63
SWIDTH 455 0
DWIDTH 8 0
BBX 8 14 0 -1
BITMAP
06600000
62269400
60006377
37644007
00079759
00720086
05802710
05277000
06006000
02772000
03661000
06051000
06371000
00310000
ENDCHAR
STARTCHAR at
ENCODING 64
SWIDTH 812 0
DWIDTH 15 0
BBX 15 15 0 -1
BITMAP
0010000000000000
02666966A6690000
0B10050050846000
0779666666705000
0615555756537000
2A46630404834100
1516638755541400
0624505142395500
1726664242360500
273A914765990420
0624712400546810
2418354555556400
4536665200000000
0594400500000000
0001556200000000
ENDCHAR
STARTCHAR A
ENCODING 65
SWIDTH 507 0
DWIDTH 9 0
BBX 10 13 0 0
BITMAP
0037500000
0070281000
0070267000
0160607000
0676606100
0700B64600
0702840700
0804495981
2866781016
4207060245
7009678590
7007015071
5774018760
ENDCHAR
STARTCHAR B
ENCODING 66
SWIDTH 533 0
DWIDTH 10 0
BBX 10 15 0 -1
BITMAP
0023000000
0675741000
1C10059400
0A85061365
0707773016
39672777A2
2507930291
0606056500
2507373750
3967850052
1508887194
2977261874
5900047620
3A03761000
0175000000
ENDCHAR
STARTCHAR C
ENCODING 67
SWIDTH 515 0
DWIDTH 9 0
BBX 10 14 0 -1
BITMAP
0277662010
0600075681
0700050042
0676A76780
0A63600000
0702500000
0706100000
1826000000
3647100000
4307344770
700A482043
7547060142
0A56776660
0251000000
ENDCHAR
STARTCHAR D
ENCODING 68
SWIDTH 520 0
DWIDTH 9 0
BBX 10 14 0 -1
BITMAP
0697700000
1860360000
0881037000
0719108600
3967840460
2507172026
0606008154
1506055747
3967880271
1509424800
2507018100
5207180000
3769810000
0014200000
ENDCHAR
STARTCHAR E
ENCODING 69
SWIDTH 490 0
DWIDTH 9 0
BBX 9 14 0 -1
BITMAP
0676553620
1605383170
0707050070
0707677740
3967100000
2507667000
0606005100
1506437000
3967344000
1508752400
2507264450
5207230060
3768766820
0010000000
ENDCHAR
STARTCHAR F
ENCODING 70
SWIDTH 475 0
DWIDTH 9 0
BBX 9 14 0 -1
BITMAP
0676553620
1605383170
0707050070
0707677740
3967100000
2507667000
0606005100
1506437000
3967344000
1507000000
2507000000
5207000000
3768000000
0010000000
ENDCHAR
STARTCHAR G
ENCODING 71
SWIDTH 557 0
DWIDTH 10 0
BBX 10 14 0 -1
BITMAP
0277662010
0600075681
0700050042
0676A76780
0A63600000
0702501550
0706107126
1826006025
3647106226
430734A427
700A487107
7547066007
0A56778765
0251000000
ENDCHAR
STARTCHAR H
ENCODING 72
SWIDTH 611 0
DWIDTH 11 0
BBX 11 13 0 0
BITMAP
067600277500
160520710710
070700430700
070600330700
396710676700
250700520700
060700343A60
2507347A3070
396791060170
150751576930
250876610700
520700700700
376700577600
ENDCHAR
STARTCHAR I
ENCODING 73
SWIDTH 266 0
DWIDTH 5 0
BBX 5 13 0 0
BITMAP
067600
160520
070700
070600
396710
250700
060600
250600
396710
150700
250700
520700
376700
ENDCHAR
STARTCHAR J
ENCODING 74
SWIDTH 484 0
DWIDTH 9 0
BBX 10 14 -1 -1
BITMAP
0000006750
0000026062
0000007070
0000006060
0000049670
0000025070
0273016070
1707025070
3601849671
0353495070
0067047070
0007105470
0000709780
0000472100
ENDCHAR
STARTCHAR K
ENCODING 75
SWIDTH 541 0
DWIDTH 10 0
BBX 10 14 0 -1
BITMAP
0675000210
1605201864
0707008107
07061B1046
3967737260
2508502800
060601B100
1507562600
3967673710
15095B4250
2507061080
5207016034
3768008570
0010000100
ENDCHAR
STARTCHAR L
ENCODING 76
SWIDTH 467 0
DWIDTH 8 0
BBX 9 13 0 0
BITMAP
0676000000
1605200000
0707000000
0706000000
3967100000
2507000000
0606000000
2506000000
3967100000
1508621310
2507845370
5207600070
3768776750
ENDCHAR
STARTCHAR M
ENCODING 77
SWIDTH 733 0
DWIDTH 13 0
BBX 14 14 0 -1
BITMAP
00674000773000
00706302507200
02607804307700
05206707006700
0964753A645700
07019485067800
070570A2090610
260670620B1520
476753494A4360
61072806648270
70060706806070
70160701906061
67740567309682
00000000000100
ENDCHAR
STARTCHAR N
ENCODING 78
SWIDTH 598 0
DWIDTH 11 0
BBX 11 14 0 -1
BITMAP
057620057500
1605A0160620
070752070700
070608070600
396766696710
250600850700
060830760700
150770270700
396787386710
150716044700
250707008700
520703307800
3768017A9800
001000001000
ENDCHAR
STARTCHAR O
ENCODING 79
SWIDTH 612 0
DWIDTH 11 0
BBX 11 14 0 -1
BITMAP
027766213000
060007569900
070005004900
0676A7688700
0A6360397700
070250260700
070610070700
182600070430
3648100A6460
4307154A7740
700958320960
754705001780
0A567777A820
025100000000
ENDCHAR
STARTCHAR P
ENCODING 80
SWIDTH 513 0
DWIDTH 9 0
BBX 10 15 0 -1
BITMAP
0001000000
0487610000
1C20179200
0B62052574
0729851006
396704A682
3407561182
1608660730
1507037100
3867361000
2508500000
2507000000
4207000000
5648000000
0130000000
ENDCHAR
STARTCHAR Q
ENCODING 81
SWIDTH 612 0
DWIDTH 11 0
BBX 11 16 0 -3
BITMAP
027766213000
060007569900
070005004900
0676A7688700
0A6360397700
070250260700
070610070700
182600070430
3648100A6460
4307154A7740
700958320960
754705001780
0A567797A820
025170520000
000070350000
000046500000
ENDCHAR
STARTCHAR R
ENCODING 82
SWIDTH 532 0
DWIDTH 10 0
BBX 10 14 0 -1
BITMAP
0287400000
1C20388100
0B41053673
073A740006
295616A563
3507471292
1608987650
1607803500
3867640710
2508676360
2507053061
4307007007
5428004463
0351000310
ENDCHAR
STARTCHAR S
ENCODING 83
SWIDTH 442 0
DWIDTH 8 0
BBX 8 14 0 -1
BITMAP
03267674
4AA26007
73244457
61096211
07016000
06757000
01801600
00350440
00077370
00066053
76698108
60062546
74667660
13000000
ENDCHAR
STARTCHAR T
ENCODING 84
SWIDTH 453 0
DWIDTH 8 0
BBX 10 13 -1 0
BITMAP
0666686670
1600060043
1601042142
0567869560
0006316000
0008447000
0005107000
0005107000
0007667000
0006107000
0006107000
0007007000
0005666000
ENDCHAR
STARTCHAR U
ENCODING 85
SWIDTH 583 0
DWIDTH 11 0
BBX 11 14 0 -1
BITMAP
037610376100
070170801700
070250702500
070430701600
1A6540974700
070610700700
060600610700
371700520700
454800676700
430734887700
700A67105900
832806027810
0A66677B9700
026100000000
ENDCHAR
STARTCHAR V
ENCODING 86
SWIDTH 506 0
DWIDTH 9 0
BBX 9 14 0 -1
BITMAP
0110000000
7673008760
7025006070
6107033070
4347096250
3925170430
0703470600
0700B50600
0566745600
0260603400
0071606000
0075206000
0073A76000
0004300000
ENDCHAR
STARTCHAR W
ENCODING 87
SWIDTH 735 0
DWIDTH 13 0
BBX 13 14 0 -1
BITMAP
01100000002300
75730155036480
70340814243070
70060B12461060
53475A427B6260
482661A4660440
07049060560700
0700A162640700
06668577876700
02525077600700
00751066703400
00770067504200
00769732727200
00153000142000
ENDCHAR
STARTCHAR X
ENCODING 88
SWIDTH 483 0
DWIDTH 9 0
BBX 9 13 0 0
BITMAP
0010001000
3774066810
8007070160
2605820710
0617933400
02A8047000
0075063000
00A0087000
0548566100
0701A01600
7107340440
7015070170
4781057710
ENDCHAR
STARTCHAR Y
ENCODING 89
SWIDTH 484 0
DWIDTH 9 0
BBX 11 13 -1 0
BITMAP
002000033000
085700074800
520620420710
071072702500
01743B857000
006506017000
000725062000
0000C2060000
000174460000
000520710000
001702500000
004506100000
000577000000
ENDCHAR
STARTCHAR Z
ENCODING 90
SWIDTH 458 0
DWIDTH 8 0
BBX 10 13 -1 0
BITMAP
0054563610
0252173170
02400400B3
00766A67A0
0000782620
0000704700
0006207200
002A025000
0072760000
0350392410
1700884260
1803350070
0299666730
ENDCHAR
STARTCHAR bracketleft
ENCODING 91
SWIDTH 420 0
DWIDTH 8 0
BBX 8 15 0 -1
BITMAP
00003670
05C72034
36181373
25086210
25060000
58660000
52070000
34070000
33070000
57670000
42070000
43070000
61086682
64380015
04A66682
ENDCHAR
STARTCHAR backslash
ENCODING 92
SWIDTH 453 0
DWIDTH 8 0
BBX 8 13 0 0
BITMAP
01410000
47360000
71070000
17035000
0717A000
03604300
00700700
00340920
00076270
00062070
00007027
00007007
00004771
ENDCHAR
STARTCHAR bracketright
ENCODING 93
SWIDTH 420 0
DWIDTH 8 0
BBX 8 15 0 -1
BITMAP
47520000
7004AB10
74263180
01483060
00034070
000456A0
00043070
00025070
00034060
000556A0
00034060
00015060
66684060
70036371
66668910
ENDCHAR
STARTCHAR asciicircum
ENCODING 94
SWIDTH 353 0
DWIDTH 6 0
BBX 6 5 0 7
BITMAP
007820
052580
162744
706607
273275
ENDCHAR
STARTCHAR underscore
ENCODING 95
SWIDTH 499 0
DWIDTH 9 0
BBX 9 4 0 -5
BITMAP
0666866600
2400511520
2400400520
0766766600
ENDCHAR
STARTCHAR grave
ENCODING 96
SWIDTH 183 0
DWIDTH 3 0
BBX 4 5 0 13
BITMAP
1630
8060
6160
0643
0350
ENDCHAR
STARTCHAR a
ENCODING 97
SWIDTH 507 0
DWIDTH 9 0
BBX 10 13 0 0
BITMAP
0037500000
0070281000
0070267000
0160607000
0676606100
0700B64600
0702840700
0804495981
2866781016
4207060245
7009678590
7007015071
5774018760
ENDCHAR
STARTCHAR b
ENCODING 98
SWIDTH 533 0
DWIDTH 10 0
BBX 10 15 0 -1
BITMAP
0023000000
0675741000
1C10059400
0A85061365
0707773016
39672777A2
2507930291
0606056500
2507373750
3967850052
1508887194
2977261874
5900047620
3A03761000
0175000000
ENDCHAR
STARTCHAR c
ENCODING 99
SWIDTH 515 0
DWIDTH 9 0
BBX 10 14 0 -1
BITMAP
0277662010
0600075681
0700050042
0676A76780
0A63600000
0702500000
0706100000
1826000000
3647100000
4307344770
700A482043
7547060142
0A56776660
0251000000
ENDCHAR
STARTCHAR d
ENCODING 100
SWIDTH 520 0
DWIDTH 9 0
BBX 10 14 0 -1
BITMAP
0697700000
1860360000
0881037000
0719108600
3967840460
2507172026
0606008154
1506055747
3967880271
1509424800
2507018100
5207180000
3769810000
0014200000
ENDCHAR
STARTCHAR e
ENCODING 101
SWIDTH 490 0
DWIDTH 9 0
BBX 9 14 0 -1
BITMAP
0676553620
1605383170
0707050070
0707677740
3967100000
2507667000
0606005100
1506437000
3967344000
1508752400
2507264450
5207230060
3768766820
0010000000
ENDCHAR
STARTCHAR f
ENCODING 102
SWIDTH 475 0
DWIDTH 9 0
BBX 9 14 0 -1
BITMAP
0676553620
1605383170
0707050070
0707677740
3967100000
2507667000
0606005100
1506437000
3967344000
1507000000
2507000000
5207000000
3768000000
0010000000
ENDCHAR
STARTCHAR g
ENCODING 103
SWIDTH 557 0
DWIDTH 10 0
BBX 10 14 0 -1
BITMAP
0277662010
0600075681
0700050042
0676A76780
0A63600000
0702501550
0706107126
1826006025
3647106226
430734A427
700A487107
7547066007
0A56778765
0251000000
ENDCHAR
STARTCHAR h
ENCODING 104
SWIDTH 611 0
DWIDTH 11 0
BBX 11 13 0 0
BITMAP
067600277500
160520710710
070700430700
070600330700
396710676700
250700520700
060700343A60
2507347A3070
396791060170
150751576930
250876610700
520700700700
376700577600
ENDCHAR
STARTCHAR i
ENCODING 105
SWIDTH 266 0
DWIDTH 5 0
BBX 5 13 0 0
BITMAP
067600
160520
070700
070600
396710
250700
060600
250600
396710
150700
250700
520700
376700
ENDCHAR
STARTCHAR j
ENCODING 106
SWIDTH 482 0
DWIDTH 9 0
BBX 10 14 -1 -1
BITMAP
0000006750
0000026062
0000007070
0000006060
0000049670
0000025070
0273016070
1707025070
3601849671
0353495070
0067047070
0007105470
0000709780
0000472100
ENDCHAR
STARTCHAR k
ENCODING 107
SWIDTH 541 0
DWIDTH 10 0
BBX 10 14 0 -1
BITMAP
0675000210
1605201864
0707008107
07061B1046
3967737260
2508502800
060601B100
1507562600
3967673710
15095B4250
2507061080
5207016034
3768008570
0010000100
ENDCHAR
STARTCHAR l
ENCODING 108
SWIDTH 467 0
DWIDTH 8 0
BBX 9 13 0 0
BITMAP
0676000000
1605200000
0707000000
0706000000
3967100000
2507000000
0606000000
2506000000
3967100000
1508621310
2507845370
5207600070
3768776750
ENDCHAR
STARTCHAR m
ENCODING 109
SWIDTH 733 0
DWIDTH 13 0
BBX 14 14 0 -1
BITMAP
00674000773000
00706302507200
02607804307700
05206707006700
0964753A645700
07019485067800
070570A2090610
260670620B1520
476753494A4360
61072806648270
70060706806070
70160701906061
67740567309682
00000000000100
ENDCHAR
STARTCHAR n
ENCODING 110
SWIDTH 598 0
DWIDTH 11 0
BBX 11 14 0 -1
BITMAP
057620057500
1605A0160620
070752070700
070608070600
396766696710
250600850700
060830760700
150770270700
396787386710
150716044700
250707008700
520703307800
3768017A9800
001000001000
ENDCHAR
STARTCHAR o
ENCODING 111
SWIDTH 612 0
DWIDTH 11 0
BBX 11 14 0 -1
BITMAP
027766213000
060007569900
070005004900
0676A7688700
0A6360397700
070250260700
070610070700
182600070430
3648100A6460
4307154A7740
700958320960
754705001780
0A567777A820
025100000000
ENDCHAR
STARTCHAR p
ENCODING 112
SWIDTH 513 0
DWIDTH 9 0
BBX 10 15 0 -1
BITMAP
0001000000
0487610000
1C20179200
0B62052574
0729851006
396704A682
3407561182
1608660730
1507037100
3867361000
2508500000
2507000000
4207000000
5648000000
0130000000
ENDCHAR
STARTCHAR q
ENCODING 113
SWIDTH 612 0
DWIDTH 11 0
BBX 11 16 0 -3
BITMAP
027766213000
060007569900
070005004900
0676A7688700
0A6360397700
070250260700
070610070700
182600070430
3648100A6460
4307154A7740
700958320960
754705001780
0A567797A820
025170520000
000070350000
000046500000
ENDCHAR
STARTCHAR r
ENCODING 114
SWIDTH 532 0
DWIDTH 10 0
BBX 10 14 0 -1
BITMAP
0287400000
1C20388100
0B41053673
073A740006
295616A563
3507471292
1608987650
1607803500
3867640710
2508676360
2507053061
4307007007
5428004463
0351000310
ENDCHAR
STARTCHAR s
ENCODING 115
SWIDTH 442 0
DWIDTH 8 0
BBX 8 14 0 -1
BITMAP
03267674
4AA26007
73244457
61096211
07016000
06757000
01801600
00350440
00077370
00066053
76698108
60062546
74667660
13000000
ENDCHAR
STARTCHAR t
ENCODING 116
SWIDTH 453 0
DWIDTH 8 0
BBX 10 13 -1 0
BITMAP
0666686670
1600060043
1601042142
0567869560
0006316000
0008447000
0005107000
0005107000
0007667000
0006107000
0006107000
0007007000
0005666000
ENDCHAR
STARTCHAR u
ENCODING 117
SWIDTH 583 0
DWIDTH 11 0
BBX 11 14 0 -1
BITMAP
037610376100
070170801700
070250702500
070430701600
1A6540974700
070610700700
060600610700
371700520700
454800676700
430734887700
700A67105900
832806027810
0A66677B9700
026100000000
ENDCHAR
STARTCHAR v
ENCODING 118
SWIDTH 506 0
DWIDTH 9 0
BBX 9 14 0 -1
BITMAP
0110000000
7673008760
7025006070
6107033070
4347096250
3925170430
0703470600
0700B50600
0566745600
0260603400
0071606000
0075206000
0073A76000
0004300000
ENDCHAR
STARTCHAR w
ENCODING 119
SWIDTH 735 0
DWIDTH 13 0
BBX 13 14 0 -1
BITMAP
01100000002300
75730155036480
70340814243070
70060B12461060
53475A427B6260
482661A4660440
07049060560700
0700A162640700
06668577876700
02525077600700
00751066703400
00770067504200
00769732727200
00153000142000
ENDCHAR
STARTCHAR x
ENCODING 120
SWIDTH 483 0
DWIDTH 9 0
BBX 9 13 0 0
BITMAP
0010001000
3774066810
8007070160
2605820710
0617933400
02A8047000
0075063000
00A0087000
0548566100
0701A01600
7107340440
7015070170
4781057710
ENDCHAR
STARTCHAR y
ENCODING 121
SWIDTH 484 0
DWIDTH 9 0
BBX 11 13 -1 0
BITMAP
002000033000
085700074800
520620420710
071072702500
01743B857000
006506017000
000725062000
0000C2060000
000174460000
000520710000
001702500000
004506100000
000577000000
ENDCHAR
STARTCHAR z
ENCODING 122
SWIDTH 458 0
DWIDTH 8 0
BBX 10 13 -1 0
BITMAP
0054563610
0252173170
02400400B3
00766A67A0
0000782620
0000704700
0006207200
002A025000
0072760000
0350392410
1700884260
1803350070
0299666730
ENDCHAR
STARTCHAR braceleft
ENCODING 123
SWIDTH 473 0
DWIDTH 9 0
BBX 9 16 0 -2
BITMAP
0001136700
0085930430
0160512720
00702A3200
0058470000
1116034000
8567747000
60000B5000
7667747000
0016052000
0066560000
0070260000
0530766700
0450700430
0039866810
0000001100
ENDCHAR
STARTCHAR bar
ENCODING 124
SWIDTH 263 0
DWIDTH 5 0
BBX 5 15 0 -1
BITMAP
067600
160520
060700
070700
273600
474700
250700
160700
250700
497710
250700
250700
340700
610700
187600
ENDCHAR
STARTCHAR braceright
ENCODING 125
SWIDTH 473 0
DWIDTH 9 0
BBX 9 16 0 -2
BITMAP
3751200000
7019574000
7316017000
1276161000
00526A0000
0070160100
0438666550
0197000070
0177766730
0070170000
00457A0000
0017024000
4669108000
7003418000
6566A71000
0200000000
ENDCHAR
STARTCHAR asciitilde
ENCODING 126
SWIDTH 456 0
DWIDTH 8 0
BBX 8 5 0 4
BITMAP
01894565
06168617
44372661
61661850
05116600
ENDCHAR
STARTCHAR nonbreakingspace
ENCODING 160
SWIDTH 200 0
DWIDTH 4 0
BBX 1 1 0 0
BITMAP
00
ENDCHAR
STARTCHAR exclamdown
ENCODING 161
SWIDTH 259 0
DWIDTH 5 0
BBX 4 14 0 -1
BITMAP
0262
0707
0707
0363
0666
1607
0607
1507
456A
2407
2406
4306
5538
0231
ENDCHAR
STARTCHAR cent
ENCODING 162
SWIDTH 480 0
DWIDTH 9 0
BBX 9 18 0 -3
BITMAP
0000200000
0007571000
0006051000
0006067400
0019A61610
1852240520
7800277400
4468510000
6667000000
6107000000
5108100000
60086A3000
4865153820
0369610520
0006397700
0006060000
0008280000
0001410000
ENDCHAR
STARTCHAR sterling
ENCODING 163
SWIDTH 594 0
DWIDTH 11 0
BBX 11 13 0 0
BITMAP
000041000000
000646642000
004A00027100
002965205200
003408577000
17A767540000
705207270000
704306070000
27A769650000
005108533500
005207833530
007007500340
005769666700
ENDCHAR
STARTCHAR currency
ENCODING 164
SWIDTH 640 0
DWIDTH 12 0
BBX 11 11 0 1
BITMAP
067104103730
521764B66070
540757143170
038767108A00
046028637460
070092290080
064537872630
077900805930
610662646070
35253A277280
035001411500
ENDCHAR
STARTCHAR yen
ENCODING 165
SWIDTH 575 0
DWIDTH 10 0
BBX 10 13 0 0
BITMAP
0000000100
1883003775
6107006008
3602716034
04445B7260
00A3070470
0068470730
0635496580
0700060070
0478778670
0026034000
0071070000
0017770000
ENDCHAR
STARTCHAR brokenbar
ENCODING 166
SWIDTH 258 0
DWIDTH 5 0
BBX 4 17 0 -2
BITMAP
0010
2758
1506
1506
4867
2406
3407
4528
0241
0563
3408
1506
3867
4406
2406
4206
2766
ENDCHAR
STARTCHAR section
ENCODING 167
SWIDTH 474 0
DWIDTH 9 0
BBX 8 14 0 -1
BITMAP
04467674
54317006
57613347
4416C821
362413A8
03775608
06053507
3308A142
48664584
06660007
2766A749
61006036
35566664
03100000
ENDCHAR
STARTCHAR dieresis
ENCODING 168
SWIDTH 351 0
DWIDTH 6 0
BBX 7 4 0 13
BITMAP
14203200
82863630
60660600
36316400
ENDCHAR
STARTCHAR copyright
ENCODING 169
SWIDTH 719 0
DWIDTH 13 0
BBX 13 15 0 -1
BITMAP
00100000000000
05667A66967600
2A000500537640
18876666674330
15331655224420
48458211657540
33338886342420
24426330033510
35346364245430
45447652654530
33420766432510
52377667687520
63544104222930
0A967667665500
00001001002000
ENDCHAR
STARTCHAR ordfeminine
ENCODING 170
SWIDTH 455 0
DWIDTH 8 0
BBX 10 13 -1 0
BITMAP
0003555000
0007833500
0016700600
0052430700
00A3262920
0253784340
0565781070
0770016070
1747657054
0377005740
0066666700
0060000700
0066666700
ENDCHAR
STARTCHAR guillemotleft
ENCODING 171
SWIDTH 689 0
DWIDTH 12 0
BBX 12 9 0 2
BITMAP
000140000140
001737001736
056007056007
710173710273
632900723800
765360765460
164017164027
003518004517
000361000460
ENDCHAR
STARTCHAR logicalnot
ENCODING 172
SWIDTH 591 0
DWIDTH 11 0
BBX 11 8 0 0
BITMAP
164455235000
612328469500
700005070710
387776670600
000000060600
000000060600
000000081800
000000026200
ENDCHAR
STARTCHAR uni00AD
ENCODING 173
SWIDTH 465 0
DWIDTH 8 0
BBX 8 4 0 4
BITMAP
17668564
60006107
60004007
17666664
ENDCHAR
STARTCHAR registered
ENCODING 174
SWIDTH 719 0
DWIDTH 13 0
BBX 13 15 0 -1
BITMAP
00100000000000
05667A66967600
2A000500537640
18876666674330
15330210024420
48456966557540
33336773642420
24426343233510
35346240045430
45446250054530
33425630032510
52377667687520
63544104222930
0A967667665500
00001001002000
ENDCHAR
STARTCHAR macron
ENCODING 175
SWIDTH 263 0
DWIDTH 5 0
BBX 5 3 0 13
BITMAP
666650
622060
344620
ENDCHAR
STARTCHAR degree
ENCODING 176
SWIDTH 333 0
DWIDTH 6 0
BBX 6 5 0 7
BITMAP
057970
161752
708806
574476
376672
ENDCHAR
STARTCHAR plusminus
ENCODING 177
SWIDTH 464 0
DWIDTH 8 0
BBX 8 12 0 -2
BITMAP
00067400
00340600
17697853
61107217
60005007
28796965
00330600
00277500
05234121
53438658
60006007
37667666
ENDCHAR
STARTCHAR twosuperior
ENCODING 178
SWIDTH 324 0
DWIDTH 6 0
BBX 6 8 0 5
BITMAP
153230
501261
455580
015060
060500
512753
387105
044451
ENDCHAR
STARTCHAR threesuperior
ENCODING 179
SWIDTH 332 0
DWIDTH 6 0
BBX 6 8 0 5
BITMAP
253220
501263
554575
035514
034505
165505
420794
065310
ENDCHAR
STARTCHAR acute
ENCODING 180
SWIDTH 202 0
DWIDTH 4 0
BBX 4 5 0 13
BITMAP
0240
0725
4453
8340
3500
ENDCHAR
STARTCHAR mu
ENCODING 181
SWIDTH 582 0
DWIDTH 10 0
BBX 10 16 0 -3
BITMAP
0042001640
0835608135
0602507034
0604307034
0704209646
0B65408006
0705207006
0707007007
0707008657
1716217757
2857983067
0607060068
1508578B88
4307100230
5528000000
0241000000
ENDCHAR
STARTCHAR paragraph
ENCODING 182
SWIDTH 556 0
DWIDTH 10 0
BBX 10 15 0 -1
BITMAP
0000001000
0000276820
003A510493
5744303871
7001679170
557A31A672
5612756061
0560767070
0027206060
0002739662
0000076070
0000006070
0000024060
0000046271
0000002410
ENDCHAR
STARTCHAR periodcentered
ENCODING 183
SWIDTH 215 0
DWIDTH 4 0
BBX 4 3 0 5
BITMAP
4673
5133
3672
ENDCHAR
STARTCHAR cedilla
ENCODING 184
SWIDTH 237 0
DWIDTH 4 0
BBX 5 6 0 -4
BITMAP
003500
007420
006510
367430
705B00
774100
ENDCHAR
STARTCHAR onesuperior
ENCODING 185
SWIDTH 286 0
DWIDTH 5 0
BBX 5 8 0 5
BITMAP
003500
043240
611560
618050
155050
004050
005050
003520
ENDCHAR
STARTCHAR ordmasculine
ENCODING 186
SWIDTH 476 0
DWIDTH 9 0
BBX 9 13 0 0
BITMAP
0543523300
4333844700
6100667920
6868780330
4205060500
4214060500
6019A86B00
6772600600
3445554700
0542412200
0656668000
0700005100
0566668000
ENDCHAR
STARTCHAR guillemotright
ENCODING 187
SWIDTH 689 0
DWIDTH 12 0
BBX 12 9 0 2
BITMAP
023000023000
275400375400
610372610362
165007164007
00470A004609
037278036378
450173540173
361700352700
046000046000
ENDCHAR
STARTCHAR onequarter
ENCODING 188
SWIDTH 790 0
DWIDTH 14 0
BBX 14 13 0 0
BITMAP
00161000000000
02506045610000
53057050510000
51815060500000
04605192500000
00505322500000
00506515103640
00253605015283
00000856150605
00000506604955
00004232754056
00006041254755
00001550000555
ENDCHAR
STARTCHAR onehalf
ENCODING 189
SWIDTH 771 0
DWIDTH 14 0
BBX 14 14 0 -1
BITMAP
00161000000000
02506045610000
53057050510000
51815060500000
04605192500000
00505322500000
00506515454550
00253605500050
00000856357580
00000506023140
00004232150620
00006041513545
000015502B9434
00000000010020
ENDCHAR
STARTCHAR threequarters
ENCODING 190
SWIDTH 817 0
DWIDTH 15 0
BBX 15 13 0 0
BITMAP
1532300000000000
5012630755000000
4545750506000000
0356051424000000
0345057551000000
1656055070000000
3206956050066200
0653115050425810
0000046454315140
0000050524087630
0000060609610820
0000060504556540
0000035300016530
ENDCHAR
STARTCHAR questiondown
ENCODING 191
SWIDTH 455 0
DWIDTH 8 0
BBX 8 14 0 -1
BITMAP
00005640
00006060
00008370
00001400
00027660
00025060
00175660
05600750
79416500
72377410
70051357
27790007
00046755
00000020
ENDCHAR
STARTCHAR Agrave
ENCODING 192
SWIDTH 507 0
DWIDTH 9 0
BBX 10 18 0 0
BITMAP
0006400000
0071600000
0034510000
0007160000
0002600000
0037500000
0070281000
0070267000
0160607000
0676606100
0700B64600
0702840700
0804495981
2866781016
4207060245
7009678590
7007015071
5774018760
ENDCHAR
STARTCHAR Aacute
ENCODING 193
SWIDTH 507 0
DWIDTH 9 0
BBX 10 18 0 0
BITMAP
0000015000
0000062600
0000254500
0000816000
0000260000
0037500000
0070281000
0070267000
0160607000
0676606100
0700B64600
0702840700
0804495981
2866781016
4207060245
7009678590
7007015071
5774018760
ENDCHAR
STARTCHAR Acircumflex
ENCODING 194
SWIDTH 507 0
DWIDTH 9 0
BBX 10 18 0 0
BITMAP
00067A0000
0016194000
0070A17100
0064262500
0035045000
0037500000
0070281000
0070267000
0160607000
0676606100
0700B64600
0702840700
0804495981
2866781016
4207060245
7009678590
7007015071
5774018760
ENDCHAR
STARTCHAR Atilde
ENCODING 195
SWIDTH 507 0
DWIDTH 9 0
BBX 10 17 0 0
BITMAP
0037B17640
0070775350
0626543700
072570B200
0187765000
0070281000
0070267000
0160607000
0676606100
0700B64600
0702840700
0804495981
2866781016
4207060245
7009678590
7007015071
5774018760
ENDCHAR
STARTCHAR Adieresis
ENCODING 196
SWIDTH 507 0
DWIDTH 9 0
BBX 10 17 0 0
BITMAP
0024013000
0453683800
0152460600
0066146200
0037500000
0070281000
0070267000
0160607000
0676606100
0700B64600
0702840700
0804495981
2866781016
4207060245
7009678590
7007015071
5774018760
ENDCHAR
STARTCHAR Aring
ENCODING 197
SWIDTH 507 0
DWIDTH 9 0
BBX 10 18 0 0
BITMAP
0005663000
0025357000
0070753400
0088796400
0063438000
004A833000
0070281000
0070267000
0160607000
0676606100
0700B64600
0702840700
0804495981
2866781016
4207060245
7009678590
7007015071
5774018760
ENDCHAR
STARTCHAR AE
ENCODING 198
SWIDTH 797 0
DWIDTH 14 0
BBX 16 13 -1 0
BITMAP
0000001277464460
0000067A10863243
0000070070741034
0000530710A67770
0001A51D64700000
0005127800A67300
0008016601600700
0074085800842600
0075471964825100
0430642701A73230
2701954901573480
4506100700750060
0577000767866670
ENDCHAR
STARTCHAR Ccedilla
ENCODING 199
SWIDTH 515 0
DWIDTH 9 0
BBX 10 17 0 -4
BITMAP
0277662010
0600075681
0700050042
0676A76780
0A63600000
0702500000
0706100000
1826000000
3647100000
4307344770
700A482043
7547060142
0A56779660
0250516000
0015A17000
0062196000
0028620000
ENDCHAR
STARTCHAR Egrave
ENCODING 200
SWIDTH 490 0
DWIDTH 9 0
BBX 9 19 0 -1
BITMAP
0005500000
0063600000
0016340000
0005170000
0000610000
0676553620
1605383170
0707050070
0707677740
3967100000
2507667000
0606005100
1506437000
3967344000
1508752400
2507264450
5207230060
3768766820
0010000000
ENDCHAR
STARTCHAR Eacute
ENCODING 201
SWIDTH 490 0
DWIDTH 9 0
BBX 9 19 0 -1
BITMAP
0000042000
0000166100
0000717100
0004471000
0000630000
0676553620
1605383170
0707050070
0707677740
3967100000
2507667000
0606005100
1506437000
3967344000
1508752400
2507264450
5207230060
3768766820
0010000000
ENDCHAR
STARTCHAR Ecircumflex
ENCODING 202
SWIDTH 490 0
DWIDTH 9 0
BBX 9 19 0 -1
BITMAP
00067A0000
0015194000
0070A17100
0165263500
0034045000
0676553620
1605383170
0707050070
0707677740
3967100000
2507667000
0606005100
1506437000
3967344000
1508752400
2507264450
5207230060
3768766820
0010000000
ENDCHAR
STARTCHAR Edieresis
ENCODING 203
SWIDTH 490 0
DWIDTH 9 0
BBX 9 18 0 -1
BITMAP
0023013000
0543583700
0243360600
0065046100
0676553620
1605383170
0707050070
0707677740
3967100000
2507667000
0606005100
1506437000
3967344000
1508752400
2507264450
5207230060
3768766820
0010000000
ENDCHAR
STARTCHAR Igrave
ENCODING 204
SWIDTH 266 0
DWIDTH 5 0
BBX 5 18 0 0
BITMAP
262000
816000
617000
066200
044000
067600
160520
070700
070600
396710
250700
060600
250600
396710
150700
250700
520700
376700
ENDCHAR
STARTCHAR Iacute
ENCODING 205
SWIDTH 266 0
DWIDTH 5 0
BBX 6 18 0 0
BITMAP
000330
000743
006172
016520
005400
067600
160520
070700
070600
396710
250700
060600
250600
396710
150700
250700
520700
376700
ENDCHAR
STARTCHAR Icircumflex
ENCODING 206
SWIDTH 266 0
DWIDTH 5 0
BBX 6 18 0 0
BITMAP
067A00
161940
709161
642625
350350
067600
160520
070700
070600
396710
250700
060600
250600
396710
150700
250700
520700
376700
ENDCHAR
STARTCHAR Idieresis
ENCODING 207
SWIDTH 266 0
DWIDTH 5 0
BBX 7 17 -1 0
BITMAP
03302300
63557370
42526250
16505510
00676000
01605200
00707000
00706000
03967100
02507000
00606000
02506000
03967100
01507000
02507000
05207000
03767000
ENDCHAR
STARTCHAR Eth
ENCODING 208
SWIDTH 669 0
DWIDTH 12 0
BBX 14 14 -1 -1
BITMAP
00001797400000
00006720630000
00003850065000
00004328029300
00008658640730
18668627370062
43000077018090
17565457075763
01107857A50460
0000610B153500
00006007037000
00007007360000
00006678700000
00000015100000
ENDCHAR
STARTCHAR Ntilde
ENCODING 209
SWIDTH 598 0
DWIDTH 11 0
BBX 11 19 0 -1
BITMAP
00018A366500
000706761600
005347357000
006167095000
000511660000
057620057500
1605A0160620
070752070700
070608070600
396766696710
250600850700
060830760700
150770270700
396787386710
150716044700
250707008700
520703307800
3768017A9800
001000001000
ENDCHAR
STARTCHAR Ograve
ENCODING 210
SWIDTH 612 0
DWIDTH 11 0
BBX 11 19 0 -1
BITMAP
000037000000
000354200000
000071600000
000033700000
000006200000
027766213000
060007569900
070005004900
0676A7688700
0A6360397700
070250260700
070610070700
182600070430
3648100A6460
4307154A7740
700958320960
754705001780
0A567777A820
025100000000
ENDCHAR
STARTCHAR Oacute
ENCODING 211
SWIDTH 612 0
DWIDTH 11 0
BBX 11 19 0 -1
BITMAP
000000240000
000000725000
000004453000
000008340000
000003500000
027766213000
060007569900
070005004900
0676A7688700
0A6360397700
070250260700
070610070700
182600070430
3648100A6460
4307154A7740
700958320960
754705001780
0A567777A820
025100000000
ENDCHAR
STARTCHAR Ocircumflex
ENCODING 212
SWIDTH 612 0
DWIDTH 11 0
BBX 11 19 0 -1
BITMAP
000057B00000
000060860000
000718352000
000734616000
000250360000
027766213000
060007569900
070005004900
0676A7688700
0A6360397700
070250260700
070610070700
182600070430
3648100A6460
4307154A7740
700958320960
754705001780
0A567777A820
025100000000
ENDCHAR
STARTCHAR Otilde
ENCODING 213
SWIDTH 612 0
DWIDTH 11 0
BBX 11 19 0 -1
BITMAP
000089546600
000625860700
003538166100
005265276000
000520661000
027766213000
060007569900
070005004900
0676A7688700
0A6360397700
070250260700
070610070700
182600070430
3648100A6460
4307154A7740
700958320960
754705001780
0A567777A820
025100000000
ENDCHAR
STARTCHAR Odieresis
ENCODING 214
SWIDTH 612 0
DWIDTH 11 0
BBX 11 18 0 -1
BITMAP
000330230000
007365636000
005162533000
001650551000
027766213000
060007569900
070005004900
0676A7688700
0A6360397700
070250260700
070610070700
182600070430
3648100A6460
4307154A7740
700958320960
754705001780
0A567777A820
025100000000
ENDCHAR
STARTCHAR multiply
ENCODING 215
SWIDTH 421 0
DWIDTH 8 0
BBX 8 8 0 2
BITMAP
00200000
18556760
61057061
46008770
06733640
62281080
36457370
03402400
ENDCHAR
STARTCHAR Oslash
ENCODING 216
SWIDTH 612 0
DWIDTH 11 0
BBX 11 14 0 -1
BITMAP
027766225100
060007593900
070005340610
0676A7803900
0A6368709700
070265163700
070680180700
182730770430
364A825A6460
4352195A7740
72604A320960
680075001780
08058777A820
028600000000
ENDCHAR
STARTCHAR Ugrave
ENCODING 217
SWIDTH 583 0
DWIDTH 11 0
BBX 11 19 0 -1
BITMAP
000163000000
000806000000
000526000000
000074300000
000035000000
037610376100
070170801700
070250702500
070430701600
1A6540974700
070610700700
060600610700
371700520700
454800676700
430734887700
700A67105900
832806027810
0A66677B9700
026100000000
ENDCHAR
STARTCHAR Uacute
ENCODING 218
SWIDTH 583 0
DWIDTH 11 0
BBX 11 19 0 -1
BITMAP
000000510000
000005270000
000026360000
000071700000
000027000000
037610376100
070170801700
070250702500
070430701600
1A6540974700
070610700700
060600610700
371700520700
454800676700
430734887700
700A67105900
832806027810
0A66677B9700
026100000000
ENDCHAR
STARTCHAR Ucircumflex
ENCODING 219
SWIDTH 583 0
DWIDTH 11 0
BBX 11 19 0 -1
BITMAP
00018A400000
000616800000
004447260000
006165170000
000611620000
037610376100
070170801700
070250702500
070430701600
1A6540974700
070610700700
060600610700
371700520700
454800676700
430734887700
700A67105900
832806027810
0A66677B9700
026100000000
ENDCHAR
STARTCHAR Udieresis
ENCODING 220
SWIDTH 583 0
DWIDTH 11 0
BBX 11 18 0 -1
BITMAP
001420320000
008286363000
006066160000
003631640000
037610376100
070170801700
070250702500
070430701600
1A6540974700
070610700700
060600610700
371700520700
454800676700
430734887700
700A67105900
832806027810
0A66677B9700
026100000000
ENDCHAR
STARTCHAR Yacute
ENCODING 221
SWIDTH 484 0
DWIDTH 9 0
BBX 11 17 -1 0
BITMAP
000000520000
000003570000
000007170000
000062700000
002016233000
085700074800
520620420710
071072702500
01743B857000
006506017000
000725062000
0000C2060000
000174460000
000520710000
001702500000
004506100000
000577000000
ENDCHAR
STARTCHAR Thorn
ENCODING 222
SWIDTH 520 0
DWIDTH 9 0
BBX 10 14 0 -1
BITMAP
0363000000
1718200000
0887620000
0C20169200
3C73061574
3418761006
060704A782
1606660182
3967570730
2507037100
2507471000
4307500000
5648000000
0130000000
ENDCHAR
STARTCHAR germandbls
ENCODING 223
SWIDTH 884 0
DWIDTH 16 0
BBX 16 14 0 -1
BITMAP
0326767403367674
4AA260075AA26007
7324445782244457
61096211710A6211
0701600007026000
0675700005657000
0180160001702600
0035044000340530
0007737000087370
0006605300065053
7669810876698008
6006254660063556
7466766074667660
1300000013000000
ENDCHAR
STARTCHAR agrave
ENCODING 224
SWIDTH 507 0
DWIDTH 9 0
BBX 10 18 0 0
BITMAP
0006400000
0071600000
0034510000
0007160000
0002600000
0037500000
0070281000
0070267000
0160607000
0676606100
0700B64600
0702840700
0804495981
2866781016
4207060245
7009678590
7007015071
5774018760
ENDCHAR
STARTCHAR aacute
ENCODING 225
SWIDTH 507 0
DWIDTH 9 0
BBX 10 18 0 0
BITMAP
0000015000
0000062600
0000254500
0000816000
0000260000
0037500000
0070281000
0070267000
0160607000
0676606100
0700B64600
0702840700
0804495981
2866781016
4207060245
7009678590
7007015071
5774018760
ENDCHAR
STARTCHAR acircumflex
ENCODING 226
SWIDTH 507 0
DWIDTH 9 0
BBX 10 18 0 0
BITMAP
00067A0000
0016194000
0070A17100
0064262500
0035045000
0037500000
0070281000
0070267000
0160607000
0676606100
0700B64600
0702840700
0804495981
2866781016
4207060245
7009678590
7007015071
5774018760
ENDCHAR
STARTCHAR atilde
ENCODING 227
SWIDTH 507 0
DWIDTH 9 0
BBX 10 17 0 0
BITMAP
0037B17640
0070775350
0626543700
072570B200
0187765000
0070281000
0070267000
0160607000
0676606100
0700B64600
0702840700
0804495981
2866781016
4207060245
7009678590
7007015071
5774018760
ENDCHAR
STARTCHAR adieresis
ENCODING 228
SWIDTH 507 0
DWIDTH 9 0
BBX 10 17 0 0
BITMAP
0024013000
0453683800
0152460600
0066146200
0037500000
0070281000
0070267000
0160607000
0676606100
0700B64600
0702840700
0804495981
2866781016
4207060245
7009678590
7007015071
5774018760
ENDCHAR
STARTCHAR aring
ENCODING 229
SWIDTH 507 0
DWIDTH 9 0
BBX 10 18 0 0
BITMAP
0005663000
0025357000
0070753400
0088796400
0063438000
004A833000
0070281000
0070267000
0160607000
0676606100
0700B64600
0702840700
0804495981
2866781016
4207060245
7009678590
7007015071
5774018760
ENDCHAR
STARTCHAR ae
ENCODING 230
SWIDTH 797 0
DWIDTH 14 0
BBX 16 13 -1 0
BITMAP
0000001277464460
0000067A10863243
0000070070741034
0000530710A67770
0001A51D64700000
0005127800A67300
0008016601600700
0074085800842600
0075471964825100
0430642701A73230
2701954901573480
4506100700750060
0577000767866670
ENDCHAR
STARTCHAR ccedilla
ENCODING 231
SWIDTH 515 0
DWIDTH 9 0
BBX 10 17 0 -4
BITMAP
0277662010
0600075681
0700050042
0676A76780
0A63600000
0702500000
0706100000
1826000000
3647100000
4307344770
700A482043
7547060142
0A56779660
0250516000
0015A17000
0062196000
0028620000
ENDCHAR
STARTCHAR egrave
ENCODING 232
SWIDTH 490 0
DWIDTH 9 0
BBX 9 19 0 -1
BITMAP
0005500000
0063600000
0016340000
0005170000
0000610000
0676553620
1605383170
0707050070
0707677740
3967100000
2507667000
0606005100
1506437000
3967344000
1508752400
2507264450
5207230060
3768766820
0010000000
ENDCHAR
STARTCHAR eacute
ENCODING 233
SWIDTH 490 0
DWIDTH 9 0
BBX 9 19 0 -1
BITMAP
0000042000
0000166100
0000717100
0004471000
0000630000
0676553620
1605383170
0707050070
0707677740
3967100000
2507667000
0606005100
1506437000
3967344000
1508752400
2507264450
5207230060
3768766820
0010000000
ENDCHAR
STARTCHAR ecircumflex
ENCODING 234
SWIDTH 490 0
DWIDTH 9 0
BBX 9 19 0 -1
BITMAP
00067A0000
0015194000
0070A17100
0165263500
0034045000
0676553620
1605383170
0707050070
0707677740
3967100000
2507667000
0606005100
1506437000
3967344000
1508752400
2507264450
5207230060
3768766820
0010000000
ENDCHAR
STARTCHAR edieresis
ENCODING 235
SWIDTH 490 0
DWIDTH 9 0
BBX 9 18 0 -1
BITMAP
0023013000
0543583700
0243360600
0065046100
0676553620
1605383170
0707050070
0707677740
3967100000
2507667000
0606005100
1506437000
3967344000
1508752400
2507264450
5207230060
3768766820
0010000000
ENDCHAR
STARTCHAR igrave
ENCODING 236
SWIDTH 266 0
DWIDTH 5 0
BBX 5 18 0 0
BITMAP
262000
816000
617000
066200
044000
067600
160520
070700
070600
396710
250700
060600
250600
396710
150700
250700
520700
376700
ENDCHAR
STARTCHAR iacute
ENCODING 237
SWIDTH 266 0
DWIDTH 5 0
BBX 6 18 0 0
BITMAP
000330
000743
006172
016520
005400
067600
160520
070700
070600
396710
250700
060600
250600
396710
150700
250700
520700
376700
ENDCHAR
STARTCHAR icircumflex
ENCODING 238
SWIDTH 266 0
DWIDTH 5 0
BBX 6 18 0 0
BITMAP
067A00
161940
709161
642625
350350
067600
160520
070700
070600
396710
250700
060600
250600
396710
150700
250700
520700
376700
ENDCHAR
STARTCHAR idieresis
ENCODING 239
SWIDTH 266 0
DWIDTH 5 0
BBX 7 17 -1 0
BITMAP
03302300
63557370
42526250
16505510
00676000
01605200
00707000
00706000
03967100
02507000
00606000
02506000
03967100
01507000
02507000
05207000
03767000
ENDCHAR
STARTCHAR eth
ENCODING 240
SWIDTH 669 0
DWIDTH 12 0
BBX 14 14 -1 -1
BITMAP
00001797400000
00006720630000
00003850065000
00004328029300
00008658640730
18668627370062
43000077018090
17565457075763
01107857A50460
0000610B153500
00006007037000
00007007360000
00006678700000
00000015100000
ENDCHAR
STARTCHAR ntilde
ENCODING 241
SWIDTH 598 0
DWIDTH 11 0
BBX 11 19 0 -1
BITMAP
00018A366500
000706761600
005347357000
006167095000
000511660000
057620057500
1605A0160620
070752070700
070608070600
396766696710
250600850700
060830760700
150770270700
396787386710
150716044700
250707008700
520703307800
3768017A9800
001000001000
ENDCHAR
STARTCHAR ograve
ENCODING 242
SWIDTH 612 0
DWIDTH 11 0
BBX 11 19 0 -1
BITMAP
000037000000
000354200000
000071600000
000033700000
000006200000
027766213000
060007569900
070005004900
0676A7688700
0A6360397700
070250260700
070610070700
182600070430
3648100A6460
4307154A7740
700958320960
754705001780
0A567777A820
025100000000
ENDCHAR
STARTCHAR oacute
ENCODING 243
SWIDTH 612 0
DWIDTH 11 0
BBX 11 19 0 -1
BITMAP
000000240000
000000725000
000004453000
000008340000
000003500000
027766213000
060007569900
070005004900
0676A7688700
0A6360397700
070250260700
070610070700
182600070430
3648100A6460
4307154A7740
700958320960
754705001780
0A567777A820
025100000000
ENDCHAR
STARTCHAR ocircumflex
ENCODING 244
SWIDTH 612 0
DWIDTH 11 0
BBX 11 19 0 -1
BITMAP
000057B00000
000060860000
000718352000
000734616000
000250360000
027766213000
060007569900
070005004900
0676A7688700
0A6360397700
070250260700
070610070700
182600070430
3648100A6460
4307154A7740
700958320960
754705001780
0A567777A820
025100000000
ENDCHAR
STARTCHAR otilde
ENCODING 245
SWIDTH 612 0
DWIDTH 11 0
BBX 11 19 0 -1
BITMAP
000089546600
000625860700
003538166100
005265276000
000520661000
027766213000
060007569900
070005004900
0676A7688700
0A6360397700
070250260700
070610070700
182600070430
3648100A6460
4307154A7740
700958320960
754705001780
0A567777A820
025100000000
ENDCHAR
STARTCHAR odieresis
ENCODING 246
SWIDTH 612 0
DWIDTH 11 0
BBX 11 18 0 -1
BITMAP
000330230000
007365636000
005162533000
001650551000
027766213000
060007569900
070005004900
0676A7688700
0A6360397700
070250260700
070610070700
182600070430
3648100A6460
4307154A7740
700958320960
754705001780
0A567777A820
025100000000
ENDCHAR
STARTCHAR divide
ENCODING 247
SWIDTH 457 0
DWIDTH 8 0
BBX 8 10 0 1
BITMAP
00276500
00240600
00176300
27668563
70006107
70004006
27666674
00266400
00240600
00286400
ENDCHAR
STARTCHAR oslash
ENCODING 248
SWIDTH 612 0
DWIDTH 11 0
BBX 11 14 0 -1
BITMAP
027766225100
060007593900
070005340610
0676A7803900
0A6368709700
070265163700
070680180700
182730770430
364A825A6460
4352195A7740
72604A320960
680075001780
08058777A820
028600000000
ENDCHAR
STARTCHAR ugrave
ENCODING 249
SWIDTH 583 0
DWIDTH 11 0
BBX 11 19 0 -1
BITMAP
000163000000
000806000000
000526000000
000074300000
000035000000
037610376100
070170801700
070250702500
070430701600
1A6540974700
070610700700
060600610700
371700520700
454800676700
430734887700
700A67105900
832806027810
0A66677B9700
026100000000
ENDCHAR
STARTCHAR uacute
ENCODING 250
SWIDTH 583 0
DWIDTH 11 0
BBX 11 19 0 -1
BITMAP
000000510000
000005270000
000026360000
000071700000
000027000000
037610376100
070170801700
070250702500
070430701600
1A6540974700
070610700700
060600610700
371700520700
454800676700
430734887700
700A67105900
832806027810
0A66677B9700
026100000000
ENDCHAR
STARTCHAR ucircumflex
ENCODING 251
SWIDTH 583 0
DWIDTH 11 0
BBX 11 19 0 -1
BITMAP
00018A400000
000616800000
004447260000
006165170000
000611620000
037610376100
070170801700
070250702500
070430701600
1A6540974700
070610700700
060600610700
371700520700
454800676700
430734887700
700A67105900
832806027810
0A66677B9700
026100000000
ENDCHAR
STARTCHAR udieresis
ENCODING 252
SWIDTH 583 0
DWIDTH 11 0
BBX 11 18 0 -1
BITMAP
001420320000
008286363000
006066160000
003631640000
037610376100
070170801700
070250702500
070430701600
1A6540974700
070610700700
060600610700
371700520700
454800676700
430734887700
700A67105900
832806027810
0A66677B9700
026100000000
ENDCHAR
STARTCHAR yacute
ENCODING 253
SWIDTH 484 0
DWIDTH 9 0
BBX 11 17 -1 0
BITMAP
000000520000
000003570000
000007170000
000062700000
002016233000
085700074800
520620420710
071072702500
01743B857000
006506017000
000725062000
0000C2060000
000174460000
000520710000
001702500000
004506100000
000577000000
ENDCHAR
STARTCHAR thorn
ENCODING 254
SWIDTH 520 0
DWIDTH 9 0
BBX 10 14 0 -1
BITMAP
0363000000
1718200000
0887620000
0C20169200
3C73061574
3418761006
060704A782
1606660182
3967570730
2507037100
2507471000
4307500000
5648000000
0130000000
ENDCHAR
STARTCHAR ydieresis
ENCODING 255
SWIDTH 484 0
DWIDTH 9 0
BBX 11 16 -1 0
BITMAP
000330230000
007375546000
006063442000
004640583000
085700074800
520620420710
071072702500
01743B857000
006506017000
000725062000
0000C2060000
000174460000
000520710000
001702500000
004506100000
000577000000
ENDCHAR
STARTCHAR Amacron
ENCODING 256
SWIDTH 507 0
DWIDTH 9 0
BBX 10 15 0 0
BITMAP
0056666000
0062216000
005B964000
0070281000
0070267000
0160607000
0676606100
0700B64600
0702840700
0804495981
2866781016
4207060245
7009678590
7007015071
5774018760
ENDCHAR
STARTCHAR amacron
ENCODING 257
SWIDTH 507 0
DWIDTH 9 0
BBX 10 15 0 0
BITMAP
0056666000
0062216000
005B964000
0070281000
0070267000
0160607000
0676606100
0700B64600
0702840700
0804495981
2866781016
4207060245
7009678590
7007015071
5774018760
ENDCHAR
STARTCHAR Abreve
ENCODING 258
SWIDTH 507 0
DWIDTH 9 0
BBX 10 17 0 0
BITMAP
0276056200
0436061500
0065698100
008821A000
003CA61000
0070281000
0070267000
0160607000
0676606100
0700B64600
0702840700
0804495981
2866781016
4207060245
7009678590
7007015071
5774018760
ENDCHAR
STARTCHAR abreve
ENCODING 259
SWIDTH 507 0
DWIDTH 9 0
BBX 10 17 0 0
BITMAP
0276056200
0436061500
0065698100
008821A000
003CA61000
0070281000
0070267000
0160607000
0676606100
0700B64600
0702840700
0804495981
2866781016
4207060245
7009678590
7007015071
5774018760
ENDCHAR
STARTCHAR Aogonek
ENCODING 260
SWIDTH 507 0
DWIDTH 9 0
BBX 10 17 0 -4
BITMAP
0037500000
0070281000
0070267000
0160607000
0676606100
0700B64600
0702840700
0804495981
2866781016
4207060245
7009678590
7007015071
577401A790
0000025520
0000028872
0000005507
0000000372
ENDCHAR
STARTCHAR aogonek
ENCODING 261
SWIDTH 507 0
DWIDTH 9 0
BBX 10 17 0 -4
BITMAP
0037500000
0070281000
0070267000
0160607000
0676606100
0700B64600
0702840700
0804495981
2866781016
4207060245
7009678590
7007015071
577401A790
0000025520
0000028872
0000005507
0000000372
ENDCHAR
STARTCHAR Cacute
ENCODING 262
SWIDTH 515 0
DWIDTH 9 0
BBX 10 19 0 -1
BITMAP
0000005200
0000035700
0000071700
0000627000
0000062000
0277662010
0600075681
0700050042
0676A76780
0A63600000
0702500000
0706100000
1826000000
3647100000
4307344770
700A482043
7547060142
0A56776660
0251000000
ENDCHAR
STARTCHAR cacute
ENCODING 263
SWIDTH 515 0
DWIDTH 9 0
BBX 10 19 0 -1
BITMAP
0000005200
0000035700
0000071700
0000627000
0000062000
0277662010
0600075681
0700050042
0676A76780
0A63600000
0702500000
0706100000
1826000000
3647100000
4307344770
700A482043
7547060142
0A56776660
0251000000
ENDCHAR
STARTCHAR Ccircumflex
ENCODING 264
SWIDTH 515 0
DWIDTH 9 0
BBX 10 19 0 -1
BITMAP
000067A000
0001619400
00070A1710
0006426250
0003504500
0277662010
0600075681
0700050042
0676A76780
0A63600000
0702500000
0706100000
1826000000
3647100000
4307344770
700A482043
7547060142
0A56776660
0251000000
ENDCHAR
STARTCHAR ccircumflex
ENCODING 265
SWIDTH 515 0
DWIDTH 9 0
BBX 10 19 0 -1
BITMAP
000067A000
0001619400
00070A1710
0006426250
0003504500
0277662010
0600075681
0700050042
0676A76780
0A63600000
0702500000
0706100000
1826000000
3647100000
4307344770
700A482043
7547060142
0A56776660
0251000000
ENDCHAR
STARTCHAR Cdotaccent
ENCODING 266
SWIDTH 515 0
DWIDTH 9 0
BBX 10 18 0 -1
BITMAP
0000142000
0000828000
0000606000
0000363000
0277662010
0600075681
0700050042
0676A76780
0A63600000
0702500000
0706100000
1826000000
3647100000
4307344770
700A482043
7547060142
0A56776660
0251000000
ENDCHAR
STARTCHAR cdotaccent
ENCODING 267
SWIDTH 515 0
DWIDTH 9 0
BBX 10 18 0 -1
BITMAP
0000142000
0000828000
0000606000
0000363000
0277662010
0600075681
0700050042
0676A76780
0A63600000
0702500000
0706100000
1826000000
3647100000
4307344770
700A482043
7547060142
0A56776660
0251000000
ENDCHAR
STARTCHAR Ccaron
ENCODING 268
SWIDTH 515 0
DWIDTH 9 0
BBX 10 19 0 -1
BITMAP
0001101100
0017717620
0017192530
0004253500
000074B000
02778B4010
0600075681
0700050042
0676A76780
0A63600000
0702500000
0706100000
1826000000
3647100000
4307344770
700A482043
7547060142
0A56776660
0251000000
ENDCHAR
STARTCHAR ccaron
ENCODING 269
SWIDTH 515 0
DWIDTH 9 0
BBX 10 19 0 -1
BITMAP
0001101100
0017717620
0017192530
0004253500
000074B000
02778B4010
0600075681
0700050042
0676A76780
0A63600000
0702500000
0706100000
1826000000
3647100000
4307344770
700A482043
7547060142
0A56776660
0251000000
ENDCHAR
STARTCHAR Dcaron
ENCODING 270
SWIDTH 520 0
DWIDTH 9 0
BBX 10 20 0 -1
BITMAP
0001011000
0087276300
0070934400
0034436000
00073C0000
0002520000
0697700000
1860360000
0881037000
0719108600
3967840460
2507172026
0606008154
1506055747
3967880271
1509424800
2507018100
5207180000
3769810000
0014200000
ENDCHAR
STARTCHAR dcaron
ENCODING 271
SWIDTH 520 0
DWIDTH 9 0
BBX 10 20 0 -1
BITMAP
0001011000
0087276300
0070934400
0034436000
00073C0000
0002520000
0697700000
1860360000
0881037000
0719108600
3967840460
2507172026
0606008154
1506055747
3967880271
1509424800
2507018100
5207180000
3769810000
0014200000
ENDCHAR
STARTCHAR Dcroat
ENCODING 272
SWIDTH 669 0
DWIDTH 12 0
BBX 14 14 -1 -1
BITMAP
00001797400000
00006720630000
00003850065000
00004328029300
00008658640730
18668627370062
43000077018090
17565457075763
01107857A50460
0000610B153500
00006007037000
00007007360000
00006678700000
00000015100000
ENDCHAR
STARTCHAR dcroat
ENCODING 273
SWIDTH 669 0
DWIDTH 12 0
BBX 14 14 -1 -1
BITMAP
00001797400000
00006720630000
00003850065000
00004328029300
00008658640730
18668627370062
43000077018090
17565457075763
01107857A50460
0000610B153500
00006007037000
00007007360000
00006678700000
00000015100000
ENDCHAR
STARTCHAR Emacron
ENCODING 274
SWIDTH 490 0
DWIDTH 9 0
BBX 9 17 0 -1
BITMAP
0056665000
0062216000
0034463000
0676553620
1605383170
0707050070
0707677740
3967100000
2507667000
0606005100
1506437000
3967344000
1508752400
2507264450
5207230060
3768766820
0010000000
ENDCHAR
STARTCHAR emacron
ENCODING 275
SWIDTH 490 0
DWIDTH 9 0
BBX 9 17 0 -1
BITMAP
0056665000
0062216000
0034463000
0676553620
1605383170
0707050070
0707677740
3967100000
2507667000
0606005100
1506437000
3967344000
1508752400
2507264450
5207230060
3768766820
0010000000
ENDCHAR
STARTCHAR Ebreve
ENCODING 276
SWIDTH 490 0
DWIDTH 9 0
BBX 9 19 0 -1
BITMAP
0177146300
0164260700
0062887400
007750A100
0004563000
0676553620
1605383170
0707050070
0707677740
3967100000
2507667000
0606005100
1506437000
3967344000
1508752400
2507264450
5207230060
3768766820
0010000000
ENDCHAR
STARTCHAR ebreve
ENCODING 277
SWIDTH 490 0
DWIDTH 9 0
BBX 9 19 0 -1
BITMAP
0177146300
0164260700
0062887400
007750A100
0004563000
0676553620
1605383170
0707050070
0707677740
3967100000
2507667000
0606005100
1506437000
3967344000
1508752400
2507264450
5207230060
3768766820
0010000000
ENDCHAR
STARTCHAR Edotaccent
ENCODING 278
SWIDTH 490 0
DWIDTH 9 0
BBX 9 18 0 -1
BITMAP
0001410000
0008270000
0006060000
0004630000
0676553620
1605383170
0707050070
0707677740
3967100000
2507667000
0606005100
1506437000
3967344000
1508752400
2507264450
5207230060
3768766820
0010000000
ENDCHAR
STARTCHAR edotaccent
ENCODING 279
SWIDTH 490 0
DWIDTH 9 0
BBX 9 18 0 -1
BITMAP
0001410000
0008270000
0006060000
0004630000
0676553620
1605383170
0707050070
0707677740
3967100000
2507667000
0606005100
1506437000
3967344000
1508752400
2507264450
5207230060
3768766820
0010000000
ENDCHAR
STARTCHAR Eogonek
ENCODING 280
SWIDTH 490 0
DWIDTH 9 0
BBX 9 17 0 -4
BITMAP
0676553620
1605383170
0707050070
0707677740
3967100000
2507667000
0606005100
1506437000
3967344000
1508752400
2507264450
5207230060
3768797920
0010335100
0000387620
0000055060
0000003710
ENDCHAR
STARTCHAR eogonek
ENCODING 281
SWIDTH 490 0
DWIDTH 9 0
BBX 9 17 0 -4
BITMAP
0676553620
1605383170
0707050070
0707677740
3967100000
2507667000
0606005100
1506437000
3967344000
1508752400
2507264450
5207230060
3768797920
0010335100
0000387620
0000055060
0000003710
ENDCHAR
STARTCHAR Ecaron
ENCODING 282
SWIDTH 490 0
DWIDTH 9 0
BBX 9 19 0 -1
BITMAP
0001001000
0075465500
0070752600
0016247000
00062B2000
0677A93620
1605383170
0707050070
0707677740
3967100000
2507667000
0606005100
1506437000
3967344000
1508752400
2507264450
5207230060
3768766820
0010000000
ENDCHAR
STARTCHAR ecaron
ENCODING 283
SWIDTH 490 0
DWIDTH 9 0
BBX 9 19 0 -1
BITMAP
0001001000
0075465500
0070752600
0016247000
00062B2000
0677A93620
1605383170
0707050070
0707677740
3967100000
2507667000
0606005100
1506437000
3967344000
1508752400
2507264450
5207230060
3768766820
0010000000
ENDCHAR
STARTCHAR Gcircumflex
ENCODING 284
SWIDTH 557 0
DWIDTH 10 0
BBX 10 18 0 -1
BITMAP
0000788000
0003439200
00161A0700
0034624520
027B967410
0600075681
0700050042
0676A76780
0A63600000
0702501550
0706107126
1826006025
3647106226
430734A427
700A487107
7547066007
0A56778765
0251000000
ENDCHAR
STARTCHAR gcircumflex
ENCODING 285
SWIDTH 557 0
DWIDTH 10 0
BBX 10 18 0 -1
BITMAP
0000788000
0003439200
00161A0700
0034624520
027B967410
0600075681
0700050042
0676A76780
0A63600000
0702501550
0706107126
1826006025
3647106226
430734A427
700A487107
7547066007
0A56778765
0251000000
ENDCHAR
STARTCHAR Gbreve
ENCODING 286
SWIDTH 557 0
DWIDTH 10 0
BBX 10 19 0 -1
BITMAP
0046506610
0060606430
0033779700
0018913800
0001556000
0277662010
0600075681
0700050042
0676A76780
0A63600000
0702501550
0706107126
1826006025
3647106226
430734A427
700A487107
7547066007
0A56778765
0251000000
ENDCHAR
STARTCHAR gbreve
ENCODING 287
SWIDTH 557 0
DWIDTH 10 0
BBX 10 19 0 -1
BITMAP
0046506610
0060606430
0033779700
0018913800
0001556000
0277662010
0600075681
0700050042
0676A76780
0A63600000
0702501550
0706107126
1826006025
3647106226
430734A427
700A487107
7547066007
0A56778765
0251000000
ENDCHAR
STARTCHAR Gdotaccent
ENCODING 288
SWIDTH 557 0
DWIDTH 10 0
BBX 10 18 0 -1
BITMAP
0000132000
0000828000
0000606000
0000363000
0277662010
0600075681
0700050042
0676A76780
0A63600000
0702501550
0706107126
1826006025
3647106226
430734A427
700A487107
7547066007
0A56778765
0251000000
ENDCHAR
STARTCHAR gdotaccent
ENCODING 289
SWIDTH 557 0
DWIDTH 10 0
BBX 10 18 0 -1
BITMAP
0000132000
0000828000
0000606000
0000363000
0277662010
0600075681
0700050042
0676A76780
0A63600000
0702501550
0706107126
1826006025
3647106226
430734A427
700A487107
7547066007
0A56778765
0251000000
ENDCHAR
STARTCHAR Gcommaaccent
ENCODING 290
SWIDTH 557 0
DWIDTH 10 0
BBX 10 18 0 -5
BITMAP
0277662010
0600075681
0700050042
0676A76780
0A63600000
0702501550
0706107126
1826006025
3647106226
430734A427
700A487107
7547066007
0A56778765
0251330000
0000752000
0006171000
0025620000
0005400000
ENDCHAR
STARTCHAR gcommaaccent
ENCODING 291
SWIDTH 557 0
DWIDTH 10 0
BBX 10 18 0 -5
BITMAP
0277662010
0600075681
0700050042
0676A76780
0A63600000
0702501550
0706107126
1826006025
3647106226
430734A427
700A487107
7547066007
0A56778765
0251330000
0000752000
0006171000
0025620000
0005400000
ENDCHAR
STARTCHAR Hcircumflex
ENCODING 292
SWIDTH 611 0
DWIDTH 11 0
BBX 11 18 0 0
BITMAP
000077800000
000343920000
00171A070000
002562552000
000440540000
067600277500
160520710710
070700430700
070600330700
396710676700
250700520700
060700343A60
2507347A3070
396791060170
150751576930
250876610700
520700700700
376700577600
ENDCHAR
STARTCHAR hcircumflex
ENCODING 293
SWIDTH 611 0
DWIDTH 11 0
BBX 11 18 0 0
BITMAP
000077800000
000343920000
00171A070000
002562552000
000440540000
067600277500
160520710710
070700430700
070600330700
396710676700
250700520700
060700343A60
2507347A3070
396791060170
150751576930
250876610700
520700700700
376700577600
ENDCHAR
STARTCHAR Hbar
ENCODING 294
SWIDTH 706 0
DWIDTH 13 0
BBX 13 13 0 0
BITMAP
00576001775000
00704306206100
17706636837310
61706532734360
63A66300500060
17606667869730
00707002539600
00606347A40600
02967A20601800
00607515769300
01608765207000
04306106007000
02767104777000
ENDCHAR
STARTCHAR hbar
ENCODING 295
SWIDTH 706 0
DWIDTH 13 0
BBX 13 13 0 0
BITMAP
00576001775000
00704306206100
17706636837310
61706532734360
63A66300500060
17606667869730
00707002539600
00606347A40600
02967A20601800
00607515769300
01608765207000
04306106007000
02767104777000
ENDCHAR
STARTCHAR Itilde
ENCODING 296
SWIDTH 266 0
DWIDTH 5 0
BBX 8 18 -1 0
BITMAP
047B1763
07088434
71745270
73471B20
25036500
00676000
01605200
00707000
00706000
03967100
02507000
00606000
02506000
03967100
01507000
02507000
05207000
03767000
ENDCHAR
STARTCHAR itilde
ENCODING 297
SWIDTH 266 0
DWIDTH 5 0
BBX 8 18 -1 0
BITMAP
047B1763
07088434
71745270
73471B20
25036500
00676000
01605200
00707000
00706000
03967100
02507000
00606000
02506000
03967100
01507000
02507000
05207000
03767000
ENDCHAR
STARTCHAR Imacron
ENCODING 298
SWIDTH 266 0
DWIDTH 5 0
BBX 5 16 0 0
BITMAP
566660
622160
344530
067600
160520
070700
070600
396710
250700
060600
250600
396710
150700
250700
520700
376700
ENDCHAR
STARTCHAR imacron
ENCODING 299
SWIDTH 266 0
DWIDTH 5 0
BBX 5 16 0 0
BITMAP
566660
622160
344530
067600
160520
070700
070600
396710
250700
060600
250600
396710
150700
250700
520700
376700
ENDCHAR
STARTCHAR Ibreve
ENCODING 300
SWIDTH 266 0
DWIDTH 5 0
BBX 7 18 -1 0
BITMAP
27604620
34606160
06478810
08830B00
00456200
00676000
01605200
00707000
00706000
03967100
02507000
00606000
02506000
03967100
01507000
02507000
05207000
03767000
ENDCHAR
STARTCHAR ibreve
ENCODING 301
SWIDTH 266 0
DWIDTH 5 0
BBX 7 18 -1 0
BITMAP
27604620
34606160
06478810
08830B00
00456200
00676000
01605200
00707000
00706000
03967100
02507000
00606000
02506000
03967100
01507000
02507000
05207000
03767000
ENDCHAR
STARTCHAR Iogonek
ENCODING 302
SWIDTH 266 0
DWIDTH 5 0
BBX 5 18 0 -5
BITMAP
067600
160520
070700
070600
396710
250700
060600
250600
396710
150700
250700
520700
386800
337100
71A100
3C2620
027710
001100
ENDCHAR
STARTCHAR iogonek
ENCODING 303
SWIDTH 266 0
DWIDTH 5 0
BBX 5 18 0 -5
BITMAP
067600
160520
070700
070600
396710
250700
060600
250600
396710
150700
250700
520700
386800
337100
71A100
3C2620
027710
001100
ENDCHAR
STARTCHAR Idotaccent
ENCODING 304
SWIDTH 266 0
DWIDTH 5 0
BBX 5 17 0 0
BITMAP
014100
082700
060600
046200
067600
160520
070700
070600
396710
250700
060600
250600
396710
150700
250700
520700
376700
ENDCHAR
STARTCHAR dotlessi
ENCODING 305
SWIDTH 266 0
DWIDTH 5 0
BBX 5 13 0 0
BITMAP
067600
160520
070700
070600
396710
250700
060600
250600
396710
150700
250700
520700
376700
ENDCHAR
STARTCHAR IJ
ENCODING 306
SWIDTH 750 0
DWIDTH 14 0
BBX 13 14 0 -1
BITMAP
06760000016740
16052000053070
07070000034070
07060000033060
39671000077560
25070000061070
06060371043070
25063617052070
39676303777670
150705345B2070
25070095074070
52070017007170
3767000261B660
00000000571000
ENDCHAR
STARTCHAR ij
ENCODING 307
SWIDTH 749 0
DWIDTH 13 0
BBX 13 14 0 -1
BITMAP
06760000016740
16052000053070
07070000034070
07060000033060
39671000077560
25070000061070
06060371043070
25063617052070
39676303777670
150705345B2070
25070095074070
52070017007170
3767000261B660
00000000571000
ENDCHAR
STARTCHAR Jcircumflex
ENCODING 308
SWIDTH 484 0
DWIDTH 9 0
BBX 11 18 -1 -1
BITMAP
000000787000
000004339100
0000161A0700
000033634610
00000497A400
000002606200
000000707000
000000606000
000004967000
000002507000
027301607000
170702507000
360184967100
035349507000
006704707000
000710547000
000070978000
000047210000
ENDCHAR
STARTCHAR jcircumflex
ENCODING 309
SWIDTH 482 0
DWIDTH 9 0
BBX 11 18 -1 -1
BITMAP
000000787000
000004339100
0000161A0700
000033634610
00000497A400
000002606200
000000707000
000000606000
000004967000
000002507000
027301607000
170702507000
360184967100
035349507000
006704707000
000710547000
000070978000
000047210000
ENDCHAR
STARTCHAR Kcommaaccent
ENCODING 310
SWIDTH 541 0
DWIDTH 10 0
BBX 10 18 0 -5
BITMAP
0675000210
1605201864
0707008107
07061B1046
3967737260
2508502800
060601B100
1507562600
3967673710
15095B4250
2507061080
5207016034
3768008570
0010410100
0003570000
0007170000
0062700000
0016200000
ENDCHAR
STARTCHAR kcommaaccent
ENCODING 311
SWIDTH 541 0
DWIDTH 10 0
BBX 10 18 0 -5
BITMAP
0675000210
1605201864
0707008107
07061B1046
3967737260
2508502800
060601B100
1507562600
3967673710
15095B4250
2507061080
5207016034
3768008570
0010410100
0003570000
0007170000
0062700000
0016200000
ENDCHAR
STARTCHAR kgreenlandic
ENCODING 312
SWIDTH 541 0
DWIDTH 10 0
BBX 10 14 0 -1
BITMAP
0675000210
1605201864
0707008107
07061B1046
3967737260
2508502800
060601B100
1507562600
3967673710
15095B4250
2507061080
5207016034
3768008570
0010000100
ENDCHAR
STARTCHAR Lacute
ENCODING 313
SWIDTH 467 0
DWIDTH 8 0
BBX 9 18 0 0
BITMAP
0000510000
0005370000
0016360000
0071700000
0027100000
0676000000
1605200000
0707000000
0706000000
3967100000
2507000000
0606000000
2506000000
3967100000
1508621310
2507845370
5207600070
3768776750
ENDCHAR
STARTCHAR lacute
ENCODING 314
SWIDTH 467 0
DWIDTH 8 0
BBX 9 18 0 0
BITMAP
0000510000
0005370000
0016360000
0071700000
0027100000
0676000000
1605200000
0707000000
0706000000
3967100000
2507000000
0606000000
2506000000
3967100000
1508621310
2507845370
5207600070
3768776750
ENDCHAR
STARTCHAR Lcommaaccent
ENCODING 315
SWIDTH 467 0
DWIDTH 8 0
BBX 9 18 0 -5
BITMAP
0676000000
1605200000
0707000000
0706000000
3967100000
2507000000
0606000000
2506000000
3967100000
1508621310
2507845370
5207600070
3768776750
0003300000
0007430000
0062720000
0165200000
0054000000
ENDCHAR
STARTCHAR lcommaaccent
ENCODING 316
SWIDTH 467 0
DWIDTH 8 0
BBX 9 18 0 -5
BITMAP
0676000000
1605200000
0707000000
0706000000
3967100000
2507000000
0606000000
2506000000
3967100000
1508621310
2507845370
5207600070
3768776750
0003300000
0007430000
0062720000
0165200000
0054000000
ENDCHAR
STARTCHAR Lcaron
ENCODING 317
SWIDTH 467 0
DWIDTH 8 0
BBX 9 14 0 0
BITMAP
0000006400
0676034610
1605372600
0707547000
0706041000
3967100000
2507000000
0606000000
2506000000
3967100000
1508621310
2507845370
5207600070
3768776750
ENDCHAR
STARTCHAR lcaron
ENCODING 318
SWIDTH 467 0
DWIDTH 8 0
BBX 9 14 0 0
BITMAP
0000006400
0676034610
1605372600
0707547000
0706041000
3967100000
2507000000
0606000000
2506000000
3967100000
1508621310
2507845370
5207600070
3768776750
ENDCHAR
STARTCHAR Ldot
ENCODING 319
SWIDTH 611 0
DWIDTH 11 0
BBX 11 13 0 0
BITMAP
067600000000
160520000000
070700000000
070600000000
396710000000
250700037650
060600033150
250600027630
396710000000
150862131000
250784537000
520760007000
376877675000
ENDCHAR
STARTCHAR ldotaccent
ENCODING 320
SWIDTH 611 0
DWIDTH 11 0
BBX 11 13 0 0
BITMAP
067600000000
160520000000
070700000000
070600000000
396710000000
250700037650
060600033150
250600027630
396710000000
150862131000
250784537000
520760007000
376877675000
ENDCHAR
STARTCHAR Lslash
ENCODING 321
SWIDTH 505 0
DWIDTH 9 0
BBX 11 13 -1 0
BITMAP
001773000000
006107000000
003307000000
004206000000
008656300000
05A109560000
355207070000
356109630000
06A657000000
006109534500
006008732610
007007500420
006679666700
ENDCHAR
STARTCHAR lslash
ENCODING 322
SWIDTH 505 0
DWIDTH 9 0
BBX 11 13 -1 0
BITMAP
001773000000
006107000000
003307000000
004206000000
008656300000
05A109560000
355207070000
356109630000
06A657000000
006109534500
006008732610
007007500420
006679666700
ENDCHAR
STARTCHAR Nacute
ENCODING 323
SWIDTH 598 0
DWIDTH 11 0
BBX 11 18 0 -1
BITMAP
000000430000
000001662000
000007171000
000035610000
057625357500
1605A0160620
070752070700
070608070600
396766696710
250600850700
060830760700
150770270700
396787386710
150716044700
250707008700
520703307800
3768017A9800
001000001000
ENDCHAR
STARTCHAR nacute
ENCODING 324
SWIDTH 598 0
DWIDTH 11 0
BBX 11 18 0 -1
BITMAP
000000430000
000001662000
000007171000
000035610000
057625357500
1605A0160620
070752070700
070608070600
396766696710
250600850700
060830760700
150770270700
396787386710
150716044700
250707008700
520703307800
3768017A9800
001000001000
ENDCHAR
STARTCHAR Ncommaaccent
ENCODING 325
SWIDTH 598 0
DWIDTH 11 0
BBX 11 18 0 -5
BITMAP
057620057500
1605A0160620
070752070700
070608070600
396766696710
250600850700
060830760700
150770270700
396787386710
150716044700
250707008700
520703307800
3768017A9800
001024001000
000073500000
000435300000
000734000000
000450000000
ENDCHAR
STARTCHAR ncommaaccent
ENCODING 326
SWIDTH 598 0
DWIDTH 11 0
BBX 11 18 0 -5
BITMAP
057620057500
1605A0160620
070752070700
070608070600
396766696710
250600850700
060830760700
150770270700
396787386710
150716044700
250707008700
520703307800
3768017A9800
001024001000
000073500000
000435300000
000734000000
000450000000
ENDCHAR
STARTCHAR Ncaron
ENCODING 327
SWIDTH 598 0
DWIDTH 11 0
BBX 11 19 0 -1
BITMAP
000010110000
001771763000
000709343000
000435360000
000074B00000
057645257500
1605A0160620
070752070700
070608070600
396766696710
250600850700
060830760700
150770270700
396787386710
150716044700
250707008700
520703307800
3768017A9800
001000001000
ENDCHAR
STARTCHAR ncaron
ENCODING 328
SWIDTH 598 0
DWIDTH 11 0
BBX 11 19 0 -1
BITMAP
000010110000
001771763000
000709343000
000435360000
000074B00000
057645257500
1605A0160620
070752070700
070608070600
396766696710
250600850700
060830760700
150770270700
396787386710
150716044700
250707008700
520703307800
3768017A9800
001000001000
ENDCHAR
STARTCHAR napostrophe
ENCODING 329
SWIDTH 807 0
DWIDTH 15 0
BBX 14 13 0 0
BITMAP
03611675101674
07165308705308
52622407703407
85303406263306
13007757677767
00006107039107
0000430A10A307
00005208604507
00007667972A67
00005207440717
00005107070187
00007007060087
00005666027B86
ENDCHAR
STARTCHAR Eng
ENCODING 330
SWIDTH 595 0
DWIDTH 11 0
BBX 11 18 0 -5
BITMAP
057620014100
160590184810
060652060710
060708060700
396776350700
240700A97700
160930840700
250770270700
386787370700
150716046700
250707008800
520703306800
376801883600
001004896700
007669206900
034005127200
016157743000
004710000000
ENDCHAR
STARTCHAR eng
ENCODING 331
SWIDTH 595 0
DWIDTH 11 0
BBX 11 18 0 -5
BITMAP
057620014100
160590184810
060652060710
060708060700
396776350700
240700A97700
160930840700
250770270700
386787370700
150716046700
250707008800
520703306800
376801883600
001004896700
007669206900
034005127200
016157743000
004710000000
ENDCHAR
STARTCHAR Omacron
ENCODING 332
SWIDTH 612 0
DWIDTH 11 0
BBX 11 17 0 -1
BITMAP
000466670000
000612160000
000254540000
027766213000
060007569900
070005004900
0676A7688700
0A6360397700
070250260700
070610070700
182600070430
3648100A6460
4307154A7740
700958320960
754705001780
0A567777A820
025100000000
ENDCHAR
STARTCHAR omacron
ENCODING 333
SWIDTH 612 0
DWIDTH 11 0
BBX 11 17 0 -1
BITMAP
000466670000
000612160000
000254540000
027766213000
060007569900
070005004900
0676A7688700
0A6360397700
070250260700
070610070700
182600070430
3648100A6460
4307154A7740
700958320960
754705001780
0A567777A820
025100000000
ENDCHAR
STARTCHAR Obreve
ENCODING 334
SWIDTH 612 0
DWIDTH 11 0
BBX 11 19 0 -1
BITMAP
001770463000
002550606000
000637882000
0007740B0000
000045620000
027766213000
060007569900
070005004900
0676A7688700
0A6360397700
070250260700
070610070700
182600070430
3648100A6460
4307154A7740
700958320960
754705001780
0A567777A820
025100000000
ENDCHAR
STARTCHAR obreve
ENCODING 335
SWIDTH 612 0
DWIDTH 11 0
BBX 11 19 0 -1
BITMAP
001770463000
002550606000
000637882000
0007740B0000
000045620000
027766213000
060007569900
070005004900
0676A7688700
0A6360397700
070250260700
070610070700
182600070430
3648100A6460
4307154A7740
700958320960
754705001780
0A567777A820
025100000000
ENDCHAR
STARTCHAR Ohungarumlaut
ENCODING 336
SWIDTH 612 0
DWIDTH 11 0
BBX 11 19 0 -1
BITMAP
000004205100
000025744700
000071871700
000537717000
000063162000
027766213000
060007569900
070005004900
0676A7688700
0A6360397700
070250260700
070610070700
182600070430
3648100A6460
4307154A7740
700958320960
754705001780
0A567777A820
025100000000
ENDCHAR
STARTCHAR ohungarumlaut
ENCODING 337
SWIDTH 612 0
DWIDTH 11 0
BBX 11 19 0 -1
BITMAP
000004205100
000025744700
000071871700
000537717000
000063162000
027766213000
060007569900
070005004900
0676A7688700
0A6360397700
070250260700
070610070700
182600070430
3648100A6460
4307154A7740
700958320960
754705001780
0A567777A820
025100000000
ENDCHAR
STARTCHAR OE
ENCODING 338
SWIDTH 831 0
DWIDTH 15 0
BBX 15 14 0 -1
BITMAP
0277662586563630
0600075685573170
0700050048150070
0676A76887777750
0A63601A66200000
0702500606768000
0706100707004300
1826000706536200
3648101A66434000
4307254A67762310
700A583077074360
7547060176240070
0A56777CB8766730
0251000010000000
ENDCHAR
STARTCHAR oe
ENCODING 339
SWIDTH 831 0
DWIDTH 15 0
BBX 15 14 0 -1
BITMAP
0277662586563630
0600075685573170
0700050048150070
0676A76887777750
0A63601A66200000
0702500606768000
0706100707004300
1826000706536200
3648101A66434000
4307254A67762310
700A583077074360
7547060176240070
0A56777CB8766730
0251000010000000
ENDCHAR
STARTCHAR Racute
ENCODING 340
SWIDTH 532 0
DWIDTH 10 0
BBX 10 18 0 -1
BITMAP
0000005100
0000053700
0000162600
0000717000
0287571000
1C20388100
0B41053673
073A740006
295616A563
3507471292
1608987650
1607803500
3867640710
2508676360
2507053061
4307007007
5428004463
0351000310
ENDCHAR
STARTCHAR racute
ENCODING 341
SWIDTH 532 0
DWIDTH 10 0
BBX 10 18 0 -1
BITMAP
0000005100
0000053700
0000162600
0000717000
0287571000
1C20388100
0B41053673
073A740006
295616A563
3507471292
1608987650
1607803500
3867640710
2508676360
2507053061
4307007007
5428004463
0351000310
ENDCHAR
STARTCHAR Rcommaaccent
ENCODING 342
SWIDTH 532 0
DWIDTH 10 0
BBX 10 18 0 -5
BITMAP
0287400000
1C20388100
0B41053673
073A740006
295616A563
3507471292
1608987650
1607803500
3867640710
2508676360
2507053061
4307007007
5428004463
0351510310
0004470000
0017270000
0071700000
0017100000
ENDCHAR
STARTCHAR rcommaaccent
ENCODING 343
SWIDTH 532 0
DWIDTH 10 0
BBX 10 18 0 -5
BITMAP
0287400000
1C20388100
0B41053673
073A740006
295616A563
3507471292
1608987650
1607803500
3867640710
2508676360
2507053061
4307007007
5428004463
0351510310
0004470000
0017270000
0071700000
0017100000
ENDCHAR
STARTCHAR Rcaron
ENCODING 344
SWIDTH 532 0
DWIDTH 10 0
BBX 10 20 0 -1
BITMAP
0001001000
0065555600
0061661700
0006167000
00062A4000
0001440000
0287400000
1C20388100
0B41053673
073A740006
295616A563
3507471292
1608987650
1607803500
3867640710
2508676360
2507053061
4307007007
5428004463
0351000310
ENDCHAR
STARTCHAR rcaron
ENCODING 345
SWIDTH 532 0
DWIDTH 10 0
BBX 10 20 0 -1
BITMAP
0001001000
0065555600
0061661700
0006167000
00062A4000
0001440000
0287400000
1C20388100
0B41053673
073A740006
295616A563
3507471292
1608987650
1607803500
3867640710
2508676360
2507053061
4307007007
5428004463
0351000310
ENDCHAR
STARTCHAR Sacute
ENCODING 346
SWIDTH 442 0
DWIDTH 8 0
BBX 8 19 0 -1
BITMAP
00003400
00007440
00062620
00175300
00044000
03267674
4AA26007
73244457
61096211
07016000
06757000
01801600
00350440
00077370
00066053
76698108
60062546
74667660
13000000
ENDCHAR
STARTCHAR sacute
ENCODING 347
SWIDTH 442 0
DWIDTH 8 0
BBX 8 19 0 -1
BITMAP
00003400
00007440
00062620
00175300
00044000
03267674
4AA26007
73244457
61096211
07016000
06757000
01801600
00350440
00077370
00066053
76698108
60062546
74667660
13000000
ENDCHAR
STARTCHAR Scircumflex
ENCODING 348
SWIDTH 442 0
DWIDTH 8 0
BBX 8 19 0 -1
BITMAP
0028A200
00707700
05256340
06166070
01612610
03267674
4AA26007
73244457
61096211
07016000
06757000
01801600
00350440
00077370
00066053
76698108
60062546
74667660
13000000
ENDCHAR
STARTCHAR scircumflex
ENCODING 349
SWIDTH 442 0
DWIDTH 8 0
BBX 8 19 0 -1
BITMAP
0028A200
00707700
05256340
06166070
01612610
03267674
4AA26007
73244457
61096211
07016000
06757000
01801600
00350440
00077370
00066053
76698108
60062546
74667660
13000000
ENDCHAR
STARTCHAR Scedilla
ENCODING 350
SWIDTH 442 0
DWIDTH 8 0
BBX 8 17 0 -4
BITMAP
03267674
4AA26007
73244457
61096211
07016000
06757000
01801600
00350440
00077370
00066053
76698108
60062546
74677A60
13042600
02695800
05128400
00740000
ENDCHAR
STARTCHAR scedilla
ENCODING 351
SWIDTH 442 0
DWIDTH 8 0
BBX 8 17 0 -4
BITMAP
03267674
4AA26007
73244457
61096211
07016000
06757000
01801600
00350440
00077370
00066053
76698108
60062546
74677A60
13042600
02695800
05128400
00740000
ENDCHAR
STARTCHAR Scaron
ENCODING 352
SWIDTH 442 0
DWIDTH 8 0
BBX 8 20 0 -1
BITMAP
00100100
06555560
06166170
00615700
0062A400
00144000
03267674
4AA26007
73244457
61096211
07016000
06757000
01801600
00350440
00077370
00066053
76698108
60062546
74667660
13000000
ENDCHAR
STARTCHAR scaron
ENCODING 353
SWIDTH 442 0
DWIDTH 8 0
BBX 8 20 0 -1
BITMAP
00100100
06555560
06166170
00615700
0062A400
00144000
03267674
4AA26007
73244457
61096211
07016000
06757000
01801600
00350440
00077370
00066053
76698108
60062546
74667660
13000000
ENDCHAR
STARTCHAR Tcommaaccent
ENCODING 354
SWIDTH 453 0
DWIDTH 8 0
BBX 10 18 -1 -5
BITMAP
0666686670
1600060043
1601042142
0567869560
0006316000
0008447000
0005107000
0005107000
0007667000
0006107000
0006107000
0007007000
0005666000
0000510000
0006370000
0026360000
0071700000
0027000000
ENDCHAR
STARTCHAR tcommaaccent
ENCODING 355
SWIDTH 453 0
DWIDTH 8 0
BBX 10 18 -1 -5
BITMAP
0666686670
1600060043
1601042142
0567869560
0006316000
0008447000
0005107000
0005107000
0007667000
0006107000
0006107000
0007007000
0005666000
0000510000
0006370000
0026360000
0071700000
0027000000
ENDCHAR
STARTCHAR Tcaron
ENCODING 356
SWIDTH 453 0
DWIDTH 8 0
BBX 10 19 -1 0
BITMAP
0001001000
0046727700
0034380700
0006065200
0002587000
0000451000
0666686670
1600060043
1601042142
0567869560
0006316000
0008447000
0005107000
0005107000
0007667000
0006107000
0006107000
0007007000
0005666000
ENDCHAR
STARTCHAR tcaron
ENCODING 357
SWIDTH 453 0
DWIDTH 8 0
BBX 10 19 -1 0
BITMAP
0001001000
0046727700
0034380700
0006065200
0002587000
0000451000
0666686670
1600060043
1601042142
0567869560
0006316000
0008447000
0005107000
0005107000
0007667000
0006107000
0006107000
0007007000
0005666000
ENDCHAR
STARTCHAR Tbar
ENCODING 358
SWIDTH 455 0
DWIDTH 8 0
BBX 10 14 -1 -1
BITMAP
0465663450
1602173353
1600050033
067886A670
0005207000
0008657000
0087668700
0240000420
0087886810
0006107100
0005107000
0007007000
0007447000
0000230000
ENDCHAR
STARTCHAR tbar
ENCODING 359
SWIDTH 455 0
DWIDTH 8 0
BBX 10 14 -1 -1
BITMAP
0465663450
1602173353
1600050033
067886A670
0005207000
0008657000
0087668700
0240000420
0087886810
0006107100
0005107000
0007007000
0007447000
0000230000
ENDCHAR
STARTCHAR Utilde
ENCODING 360
SWIDTH 583 0
DWIDTH 11 0
BBX 11 19 0 -1
BITMAP
00018A466500
000706761600
004347257000
006166185000
000511660000
037610376100
070170801700
070250702500
070430701600
1A6540974700
070610700700
060600610700
371700520700
454800676700
430734887700
700A67105900
832806027810
0A66677B9700
026100000000
ENDCHAR
STARTCHAR utilde
ENCODING 361
SWIDTH 583 0
DWIDTH 11 0
BBX 11 19 0 -1
BITMAP
00018A466500
000706761600
004347257000
006166185000
000511660000
037610376100
070170801700
070250702500
070430701600
1A6540974700
070610700700
060600610700
371700520700
454800676700
430734887700
700A67105900
832806027810
0A66677B9700
026100000000
ENDCHAR
STARTCHAR Umacron
ENCODING 362
SWIDTH 583 0
DWIDTH 11 0
BBX 11 17 0 -1
BITMAP
000666650000
000622160000
000344630000
037610376100
070170801700
070250702500
070430701600
1A6540974700
070610700700
060600610700
371700520700
454800676700
430734887700
700A67105900
832806027810
0A66677B9700
026100000000
ENDCHAR
STARTCHAR umacron
ENCODING 363
SWIDTH 583 0
DWIDTH 11 0
BBX 11 17 0 -1
BITMAP
000666650000
000622160000
000344630000
037610376100
070170801700
070250702500
070430701600
1A6540974700
070610700700
060600610700
371700520700
454800676700
430734887700
700A67105900
832806027810
0A66677B9700
026100000000
ENDCHAR
STARTCHAR Ubreve
ENCODING 364
SWIDTH 583 0
DWIDTH 11 0
BBX 11 19 0 -1
BITMAP
004640760000
006061552000
004277860000
002781560000
000155600000
037610376100
070170801700
070250702500
070430701600
1A6540974700
070610700700
060600610700
371700520700
454800676700
430734887700
700A67105900
832806027810
0A66677B9700
026100000000
ENDCHAR
STARTCHAR ubreve
ENCODING 365
SWIDTH 583 0
DWIDTH 11 0
BBX 11 19 0 -1
BITMAP
004640760000
006061552000
004277860000
002781560000
000155600000
037610376100
070170801700
070250702500
070430701600
1A6540974700
070610700700
060600610700
371700520700
454800676700
430734887700
700A67105900
832806027810
0A66677B9700
026100000000
ENDCHAR
STARTCHAR Uring
ENCODING 366
SWIDTH 583 0
DWIDTH 11 0
BBX 11 20 0 -1
BITMAP
000176600000
000618330000
004438170000
003886780000
001633460000
000332410000
037610376100
070170801700
070250702500
070430701600
1A6540974700
070610700700
060600610700
371700520700
454800676700
430734887700
700A67105900
832806027810
0A66677B9700
026100000000
ENDCHAR
STARTCHAR uring
ENCODING 367
SWIDTH 583 0
DWIDTH 11 0
BBX 11 20 0 -1
BITMAP
000176600000
000618330000
004438170000
003886780000
001633460000
000332410000
037610376100
070170801700
070250702500
070430701600
1A6540974700
070610700700
060600610700
371700520700
454800676700
430734887700
700A67105900
832806027810
0A66677B9700
026100000000
ENDCHAR
STARTCHAR Uhungarumlaut
ENCODING 368
SWIDTH 583 0
DWIDTH 11 0
BBX 11 19 0 -1
BITMAP
000024033000
000073574400
000535926200
000745752000
000450440000
037610376100
070170801700
070250702500
070430701600
1A6540974700
070610700700
060600610700
371700520700
454800676700
430734887700
700A67105900
832806027810
0A66677B9700
026100000000
ENDCHAR
STARTCHAR uhungarumlaut
ENCODING 369
SWIDTH 583 0
DWIDTH 11 0
BBX 11 19 0 -1
BITMAP
000024033000
000073574400
000535926200
000745752000
000450440000
037610376100
070170801700
070250702500
070430701600
1A6540974700
070610700700
060600610700
371700520700
454800676700
430734887700
700A67105900
832806027810
0A66677B9700
026100000000
ENDCHAR
STARTCHAR Uogonek
ENCODING 370
SWIDTH 583 0
DWIDTH 11 0
BBX 11 18 0 -5
BITMAP
037610376100
070170801700
070250702500
070430701600
1A6540974700
070610700700
060600610700
371700520700
454800676700
430734887700
700A67105900
832806027810
0A66677B9800
026100427000
000000719000
0000004B1710
000000026700
000000002100
ENDCHAR
STARTCHAR uogonek
ENCODING 371
SWIDTH 583 0
DWIDTH 11 0
BBX 11 18 0 -5
BITMAP
037610376100
070170801700
070250702500
070430701600
1A6540974700
070610700700
060600610700
371700520700
454800676700
430734887700
700A67105900
832806027810
0A66677B9800
026100427000
000000719000
0000004B1710
000000026700
000000002100
ENDCHAR
STARTCHAR Wcircumflex
ENCODING 372
SWIDTH 735 0
DWIDTH 13 0
BBX 13 18 0 -1
BITMAP
00000679000000
00002529300000
000070A1710000
00016526340000
01103404502300
75730155036480
70340814243070
70060B12461060
53475A427B6260
482661A4660440
07049060560700
0700A162640700
06668577876700
02525077600700
00751066703400
00770067504200
00769732727200
00153000142000
ENDCHAR
STARTCHAR wcircumflex
ENCODING 373
SWIDTH 735 0
DWIDTH 13 0
BBX 13 18 0 -1
BITMAP
00000679000000
00002529300000
000070A1710000
00016526340000
01103404502300
75730155036480
70340814243070
70060B12461060
53475A427B6260
482661A4660440
07049060560700
0700A162640700
06668577876700
02525077600700
00751066703400
00770067504200
00769732727200
00153000142000
ENDCHAR
STARTCHAR Ycircumflex
ENCODING 374
SWIDTH 484 0
DWIDTH 9 0
BBX 11 17 -1 0
BITMAP
000088600000
000524910000
002529170000
004264361000
002530563000
085700074800
520620420710
071072702500
01743B857000
006506017000
000725062000
0000C2060000
000174460000
000520710000
001702500000
004506100000
000577000000
ENDCHAR
STARTCHAR ycircumflex
ENCODING 375
SWIDTH 484 0
DWIDTH 9 0
BBX 11 17 -1 0
BITMAP
000088600000
000524910000
002529170000
004264361000
002530563000
085700074800
520620420710
071072702500
01743B857000
006506017000
000725062000
0000C2060000
000174460000
000520710000
001702500000
004506100000
000577000000
ENDCHAR
STARTCHAR Ydieresis
ENCODING 376
SWIDTH 484 0
DWIDTH 9 0
BBX 11 16 -1 0
BITMAP
000330230000
007375546000
006063442000
004640583000
085700074800
520620420710
071072702500
01743B857000
006506017000
000725062000
0000C2060000
000174460000
000520710000
001702500000
004506100000
000577000000
ENDCHAR
STARTCHAR Zacute
ENCODING 377
SWIDTH 458 0
DWIDTH 8 0
BBX 10 18 -1 0
BITMAP
0000005100
0000053700
0000162600
0000717000
0000171000
0054563610
0252173170
02400400B3
00766A67A0
0000782620
0000704700
0006207200
002A025000
0072760000
0350392410
1700884260
1803350070
0299666730
ENDCHAR
STARTCHAR zacute
ENCODING 378
SWIDTH 458 0
DWIDTH 8 0
BBX 10 18 -1 0
BITMAP
0000005100
0000053700
0000162600
0000717000
0000171000
0054563610
0252173170
02400400B3
00766A67A0
0000782620
0000704700
0006207200
002A025000
0072760000
0350392410
1700884260
1803350070
0299666730
ENDCHAR
STARTCHAR Zdotaccent
ENCODING 379
SWIDTH 458 0
DWIDTH 8 0
BBX 10 17 -1 0
BITMAP
0000141000
0001727000
0000606000
0000561000
0054563610
0252173170
02400400B3
00766A67A0
0000782620
0000704700
0006207200
002A025000
0072760000
0350392410
1700884260
1803350070
0299666730
ENDCHAR
STARTCHAR zdotaccent
ENCODING 380
SWIDTH 458 0
DWIDTH 8 0
BBX 10 17 -1 0
BITMAP
0000141000
0001727000
0000606000
0000561000
0054563610
0252173170
02400400B3
00766A67A0
0000782620
0000704700
0006207200
002A025000
0072760000
0350392410
1700884260
1803350070
0299666730
ENDCHAR
STARTCHAR Zcaron
ENCODING 381
SWIDTH 458 0
DWIDTH 8 0
BBX 10 18 -1 0
BITMAP
0001001000
0045727700
0034480700
0007065200
0003587000
00549A4610
0252173170
02400400B3
00766A67A0
0000782620
0000704700
0006207200
002A025000
0072760000
0350392410
1700884260
1803350070
0299666730
ENDCHAR
STARTCHAR zcaron
ENCODING 382
SWIDTH 458 0
DWIDTH 8 0
BBX 10 18 -1 0
BITMAP
0001001000
0045727700
0034480700
0007065200
0003587000
00549A4610
0252173170
02400400B3
00766A67A0
0000782620
0000704700
0006207200
002A025000
0072760000
0350392410
1700884260
1803350070
0299666730
ENDCHAR
STARTCHAR AEacute
ENCODING 508
SWIDTH 797 0
DWIDTH 14 0
BBX 16 18 -1 0
BITMAP
0000000004200000
0000000016620000
0000000071710000
0000000346100000
0000000053000000
0000001277464460
0000067A10863243
0000070070741034
0000530710A67770
0001A51D64700000
0005127800A67300
0008016601600700
0074085800842600
0075471964825100
0430642701A73230
2701954901573480
4506100700750060
0577000767866670
ENDCHAR
STARTCHAR aeacute
ENCODING 509
SWIDTH 797 0
DWIDTH 14 0
BBX 16 18 -1 0
BITMAP
0000000004200000
0000000016620000
0000000071710000
0000000346100000
0000000053000000
0000001277464460
0000067A10863243
0000070070741034
0000530710A67770
0001A51D64700000
0005127800A67300
0008016601600700
0074085800842600
0075471964825100
0430642701A73230
2701954901573480
4506100700750060
0577000767866670
ENDCHAR
STARTCHAR Oslashacute
ENCODING 510
SWIDTH 612 0
DWIDTH 11 0
BBX 11 19 0 -1
BITMAP
000000330000
000000744000
000006272000
000016520000
000005400000
027766225100
060007593900
070005340610
0676A7803900
0A6368709700
070265163700
070680180700
182730770430
364A825A6460
4352195A7740
72604A320960
680075001780
08058777A820
028600000000
ENDCHAR
STARTCHAR oslashacute
ENCODING 511
SWIDTH 612 0
DWIDTH 11 0
BBX 11 19 0 -1
BITMAP
000000330000
000000744000
000006272000
000016520000
000005400000
027766225100
060007593900
070005340610
0676A7803900
0A6368709700
070265163700
070680180700
182730770430
364A825A6460
4352195A7740
72604A320960
680075001780
08058777A820
028600000000
ENDCHAR
STARTCHAR dotlessj
ENCODING 567
SWIDTH 482 0
DWIDTH 9 0
BBX 10 14 -1 -1
BITMAP
0000006750
0000026062
0000007070
0000006060
0000049670
0000025070
0273016070
1707025070
3601849671
0353495070
0067047070
0007105470
0000709780
0000472100
ENDCHAR
STARTCHAR circumflex
ENCODING 710
SWIDTH 308 0
DWIDTH 6 0
BBX 6 5 0 13
BITMAP
056B00
161850
718262
733616
250350
ENDCHAR
STARTCHAR caron
ENCODING 711
SWIDTH 310 0
DWIDTH 6 0
BBX 6 6 0 13
BITMAP
010010
863754
707435
253470
072C10
015300
ENDCHAR
STARTCHAR breve
ENCODING 728
SWIDTH 333 0
DWIDTH 6 0
BBX 6 5 0 13
BITMAP
662264
615517
609866
567183
035540
ENDCHAR
STARTCHAR dotaccent
ENCODING 729
SWIDTH 166 0
DWIDTH 3 0
BBX 3 4 0 13
BITMAP
1420
8280
6060
3630
ENDCHAR
STARTCHAR ring
ENCODING 730
SWIDTH 309 0
DWIDTH 6 0
BBX 6 6 0 13
BITMAP
046630
161670
707625
887955
634371
132330
ENDCHAR
STARTCHAR ogonek
ENCODING 731
SWIDTH 226 0
DWIDTH 4 0
BBX 4 7 0 -5
BITMAP
0410
1671
6170
7290
5A18
0467
0021
ENDCHAR
STARTCHAR tilde
ENCODING 732
SWIDTH 410 0
DWIDTH 7 0
BBX 8 5 0 13
BITMAP
056B0872
17188343
71836260
74371C10
25036400
ENDCHAR
STARTCHAR hungarumlaut
ENCODING 733
SWIDTH 361 0
DWIDTH 7 0
BBX 7 5 0 13
BITMAP
02402400
07257340
44592620
83574300
35045000
ENDCHAR
STARTCHAR uni0312
ENCODING 786
SWIDTH 202 0
DWIDTH 4 0
BBX 4 5 0 8
BITMAP
0361
0716
5262
8530
1300
ENDCHAR
STARTCHAR uni0315
ENCODING 789
SWIDTH 202 0
DWIDTH 4 0
BBX 4 5 0 8
BITMAP
0361
0716
5262
8530
1300
ENDCHAR
STARTCHAR uni0326
ENCODING 806
SWIDTH 201 0
DWIDTH 4 0
BBX 4 5 0 -5
BITMAP
0240
0725
4454
8350
3600
ENDCHAR
STARTCHAR Wgrave
ENCODING 7808
SWIDTH 735 0
DWIDTH 13 0
BBX 13 18 0 -1
BITMAP
00000550000000
00007260000000
00002542000000
00000617000000
01100161002300
75730155036480
70340814243070
70060B12461060
53475A427B6260
482661A4660440
07049060560700
0700A162640700
06668577876700
02525077600700
00751066703400
00770067504200
00769732727200
00153000142000
ENDCHAR
STARTCHAR wgrave
ENCODING 7809
SWIDTH 735 0
DWIDTH 13 0
BBX 13 18 0 -1
BITMAP
00000550000000
00007260000000
00002542000000
00000617000000
01100161002300
75730155036480
70340814243070
70060B12461060
53475A427B6260
482661A4660440
07049060560700
0700A162640700
06668577876700
02525077600700
00751066703400
00770067504200
00769732727200
00153000142000
ENDCHAR
STARTCHAR Wacute
ENCODING 7810
SWIDTH 735 0
DWIDTH 13 0
BBX 13 18 0 -1
BITMAP
00000002400000
00000007350000
00000053630000
00000074300000
01100045002300
75730155036480
70340814243070
70060B12461060
53475A427B6260
482661A4660440
07049060560700
0700A162640700
06668577876700
02525077600700
00751066703400
00770067504200
00769732727200
00153000142000
ENDCHAR
STARTCHAR wacute
ENCODING 7811
SWIDTH 735 0
DWIDTH 13 0
BBX 13 18 0 -1
BITMAP
00000002400000
00000007350000
00000053630000
00000074300000
01100045002300
75730155036480
70340814243070
70060B12461060
53475A427B6260
482661A4660440
07049060560700
0700A162640700
06668577876700
02525077600700
00751066703400
00770067504200
00769732727200
00153000142000
ENDCHAR
STARTCHAR Wdieresis
ENCODING 7812
SWIDTH 735 0
DWIDTH 13 0
BBX 13 17 0 -1
BITMAP
00002301300000
00054458370000
00024436060000
01116504612300
75730155036480
70340814243070
70060B12461060
53475A427B6260
482661A4660440
07049060560700
0700A162640700
06668577876700
02525077600700
00751066703400
00770067504200
00769732727200
00153000142000
ENDCHAR
STARTCHAR wdieresis
ENCODING 7813
SWIDTH 735 0
DWIDTH 13 0
BBX 13 17 0 -1
BITMAP
00002301300000
00054458370000
00024436060000
01116504612300
75730155036480
70340814243070
70060B12461060
53475A427B6260
482661A4660440
07049060560700
0700A162640700
06668577876700
02525077600700
00751066703400
00770067504200
00769732727200
00153000142000
ENDCHAR
STARTCHAR Ygrave
ENCODING 7922
SWIDTH 484 0
DWIDTH 9 0
BBX 11 17 -1 0
BITMAP
000163000000
000816000000
000526000000
000073400000
002035033000
085700074800
520620420710
071072702500
01743B857000
006506017000
000725062000
0000C2060000
000174460000
000520710000
001702500000
004506100000
000577000000
ENDCHAR
STARTCHAR ygrave
ENCODING 7923
SWIDTH 484 0
DWIDTH 9 0
BBX 11 17 -1 0
BITMAP
000163000000
000816000000
000526000000
000073400000
002035033000
085700074800
520620420710
071072702500
01743B857000
006506017000
000725062000
0000C2060000
000174460000
000520710000
001702500000
004506100000
000577000000
ENDCHAR
STARTCHAR endash
ENCODING 8211
SWIDTH 591 0
DWIDTH 11 0
BBX 11 4 0 4
BITMAP
276676865600
600060421510
612242310520
164564666600
ENDCHAR
STARTCHAR emdash
ENCODING 8212
SWIDTH 726 0
DWIDTH 13 0
BBX 13 4 0 4
BITMAP
27656656754610
60003311623160
61223221410070
16546656666720
ENDCHAR
STARTCHAR quoteleft
ENCODING 8216
SWIDTH 291 0
DWIDTH 5 0
BBX 6 8 0 6
BITMAP
001200
008580
015062
0A4060
063540
520700
700600
577400
ENDCHAR
STARTCHAR quoteright
ENCODING 8217
SWIDTH 291 0
DWIDTH 5 0
BBX 6 8 0 6
BITMAP
001200
008580
015062
0A4060
063540
520700
700600
577400
ENDCHAR
STARTCHAR quotesinglbase
ENCODING 8218
SWIDTH 228 0
DWIDTH 4 0
BBX 5 6 -1 -3
BITMAP
003400
006460
071070
520710
354300
034000
ENDCHAR
STARTCHAR quotedblleft
ENCODING 8220
SWIDTH 532 0
DWIDTH 10 0
BBX 10 9 0 5
BITMAP
0012001310
0085807482
0150627025
0A40657170
0635472470
5207260520
7006700600
6774386600
0000001000
ENDCHAR
STARTCHAR quotedblright
ENCODING 8221
SWIDTH 532 0
DWIDTH 10 0
BBX 10 9 0 5
BITMAP
0012001310
0085807482
0150627025
0A40657170
0635472470
5207260520
7006700600
5774386600
0000001000
ENDCHAR
STARTCHAR quotedblbase
ENCODING 8222
SWIDTH 448 0
DWIDTH 8 0
BBX 9 6 -1 -3
BITMAP
0034003400
0064616460
0710771070
5207610700
3543355300
0340034000
ENDCHAR
STARTCHAR dagger
ENCODING 8224
SWIDTH 453 0
DWIDTH 8 0
BBX 8 15 0 -1
BITMAP
00178400
00620800
00430700
47930976
70642607
62A44837
05710731
00520700
00610700
00776700
00600700
00610700
00700700
00700700
00478400
ENDCHAR
STARTCHAR daggerdbl
ENCODING 8225
SWIDTH 462 0
DWIDTH 8 0
BBX 8 15 0 -1
BITMAP
00177500
00430800
00240700
37840976
60552607
53954847
05620732
00430600
00520600
27A87875
60520707
61520817
17910853
00700700
00387500
ENDCHAR
STARTCHAR bullet
ENCODING 8226
SWIDTH 275 0
DWIDTH 5 0
BBX 3 3 1 5
BITMAP
7670
6060
6650
ENDCHAR
STARTCHAR ellipsis
ENCODING 8230
SWIDTH 605 0
DWIDTH 11 0
BBX 11 4 0 -1
BITMAP
366156416620
604260633060
637182736450
032013102300
ENDCHAR
STARTCHAR perthousand
ENCODING 8240
SWIDTH 1249 0
DWIDTH 22 0
BBX 22 13 0 0
BITMAP
0442300000000000000000
3842281175300000000000
5064554232400000000000
4050532515000000000000
5050532935000000000000
5655414516000000000000
4702663514865550475461
0254534144571075645039
0000006563254835507665
0000005062350505505325
0000005063475605557715
0000042064700606740516
00000055205557A12655A5
ENDCHAR
STARTCHAR guilsinglleft
ENCODING 8249
SWIDTH 359 0
DWIDTH 6 0
BBX 6 9 0 2
BITMAP
000140
001737
056007
710173
632900
765360
164017
003518
000361
ENDCHAR
STARTCHAR guilsinglright
ENCODING 8250
SWIDTH 359 0
DWIDTH 6 0
BBX 6 9 0 2
BITMAP
023000
275400
610372
165007
00470A
037278
450173
361700
046000
ENDCHAR
STARTCHAR fraction
ENCODING 8260
SWIDTH 266 0
DWIDTH 5 0
BBX 5 12 0 0
BITMAP
006550
005060
014140
065410
050600
050500
050500
463500
505100
606000
605000
353000
ENDCHAR
STARTCHAR Euro
ENCODING 8364
SWIDTH 690 0
DWIDTH 12 0
BBX 12 14 0 -1
BITMAP
000067664111
000160018667
000060014006
004297A76675
044796700000
061330700000
037820700000
656A30700000
700734700000
466903444573
001605774107
002847223017
000476777663
000053000000
ENDCHAR
STARTCHAR partialdiff
ENCODING 8706
SWIDTH 519 0
DWIDTH 9 0
BBX 11 14 -1 -1
BITMAP
000004740000
000063070000
000025070000
000007044000
000007568000
00005A107000
001932507000
028701706300
460457765700
1774A3600700
047004830700
007620150340
0000562A7700
000001610000
ENDCHAR
STARTCHAR minus
ENCODING 8722
SWIDTH 467 0
DWIDTH 8 0
BBX 8 4 0 4
BITMAP
17668564
60006117
61004007
17666674
ENDCHAR
STARTCHAR fi
ENCODING 64257
SWIDTH 741 0
DWIDTH 13 0
BBX 13 14 0 -1
BITMAP
06765536227720
16053831770070
07070500761070
07076777470060
39671000096470
25076670070060
06060051070160
15064370070060
39673440086570
15070000070160
25070000070150
52070000070070
37680000076750
00100000000000
ENDCHAR
STARTCHAR fl
ENCODING 64258
SWIDTH 942 0
DWIDTH 17 0
BBX 18 14 0 -1
BITMAP
067655362277200000
160538317700700000
070705007610700000
070767774700600000
396710000964700000
250766700700600000
060600510701600000
150643700700600000
396734400865700000
150700000701A42230
250700000701775462
520700000700750024
376800000767977681
001000000000000000
ENDCHAR
STARTCHAR .notdef
ENCODING -1
SWIDTH 200 0
DWIDTH 4 0
BBX 1 1 0 0
BITMAP
00
ENDCHAR
STARTCHAR .null
ENCODING -1
SWIDTH 0 0
DWIDTH 0 0
BBX 1 1 0 0
BITMAP
00
ENDCHAR
STARTCHAR nonmarkingreturn
ENCODING -1
SWIDTH 200 0
DWIDTH 4 0
BBX 1 1 0 0
BITMAP
00
ENDCHAR
ENDFONT
